<?xml version="1.0" encoding="utf-8"?>
<!-- Generator: Adobe Illustrator 23.0.3, SVG Export Plug-In . SVG Version: 6.00 Build 0)  -->
<svg version="1.1" id="Layer_1" xmlns="http://www.w3.org/2000/svg" xmlns:xlink="http://www.w3.org/1999/xlink" x="0px" y="0px"
	 viewBox="0 0 213.09 250" style="enable-background:new 0 0 213.09 250;" xml:space="preserve">
<style type="text/css">
	.st0{display:none;fill:none;stroke:#061922;stroke-width:3.0063;}
	.st1{display:none;}
	.st2{display:inline;fill:#061922;}
	.st3{display:inline;fill:#FFFFFF;}
	.st4{display:inline;fill:#FFCA23;}
	.st5{fill:#061922;}
	.st6{fill:#003876;}
	.st7{fill:#8F0028;}
	.st8{fill:#FFCA23;}
	.st9{display:inline;}
	.st10{fill:#FFFFFF;}
	.st11{display:none;fill:none;stroke:#FFFFFF;stroke-width:1.3007;}
</style>
<g>
	<path class="st0" d="M213.09,0c0,0,0,60.77,0,86.01C213.09,204.94,106.55,250,106.55,250h-0.01h0h-0.01
		C106.54,250,0,204.94,0,86.01C0,60.77,0,0,0,0L213.09,0z"/>
	<g class="st1">
		<path class="st2" d="M106.34,251.07l-0.2-0.08c-0.27-0.11-27.13-11.28-53.61-36.91c-24.45-23.66-53.6-64.84-53.6-126.65V-1.07
			h215.24v88.51c0,61.81-29.15,102.99-53.6,126.65c-26.48,25.62-53.34,36.8-53.61,36.91l-0.2,0.08H106.34z"/>
		<path class="st2" d="M213.09,0c0,0,0,62.2,0,87.44C213.09,206.36,106.55,250,106.55,250h-0.01h0h-0.01
			C106.54,250,0,206.36,0,87.44C0,62.2,0,0,0,0H213.09 M215.24-2.15h-2.15H0h-2.15V0v87.44c0,27.45,5.67,53.19,16.86,76.5
			c8.95,18.65,21.42,35.78,37.07,50.92c26.63,25.77,52.85,36.68,53.95,37.13l0.39,0.16h0.42l0.01-4.29l0,4.29h0.42l0.4-0.16
			c1.1-0.45,27.32-11.36,53.95-37.13c15.65-15.14,28.12-32.27,37.07-50.92c11.19-23.31,16.86-49.05,16.86-76.5V0V-2.15L215.24-2.15z
			"/>
	</g>
	<g class="st1">
		<path class="st3" d="M82.56,200.29c0.49,0,1,0.02,1.51,0.07c0.51,0.05,1.01,0.12,1.5,0.21c0.48,0.09,0.95,0.2,1.39,0.32
			c0.44,0.13,0.85,0.28,1.2,0.46l-0.59,3.03c-0.63-0.24-1.33-0.43-2.1-0.58c-0.77-0.15-1.53-0.22-2.28-0.22
			c-2.25,0-3.98,0.58-5.17,1.75c-1.2,1.17-1.79,2.9-1.79,5.18c0,2.28,0.6,4.01,1.79,5.18c1.2,1.17,2.92,1.76,5.17,1.76
			c0.75,0,1.51-0.07,2.28-0.22c0.77-0.15,1.47-0.34,2.1-0.58l0.59,3.03c-0.35,0.18-0.76,0.33-1.2,0.46
			c-0.44,0.13-0.91,0.23-1.39,0.32c-0.48,0.09-0.98,0.16-1.5,0.21c-0.51,0.05-1.02,0.07-1.51,0.07c-1.7,0-3.2-0.26-4.5-0.77
			c-1.3-0.51-2.4-1.22-3.29-2.13c-0.89-0.91-1.56-1.99-2.01-3.23c-0.46-1.25-0.68-2.61-0.68-4.09c0-1.48,0.23-2.85,0.68-4.09
			c0.45-1.25,1.13-2.32,2.01-3.23c0.89-0.91,1.99-1.62,3.29-2.13C79.36,200.55,80.87,200.29,82.56,200.29z"/>
		<path class="st3" d="M101.33,200.29c0.49,0,1,0.02,1.51,0.07c0.51,0.05,1.01,0.12,1.5,0.21c0.48,0.09,0.95,0.2,1.39,0.32
			c0.44,0.13,0.85,0.28,1.2,0.46l-0.59,3.03c-0.63-0.24-1.33-0.43-2.1-0.58c-0.77-0.15-1.53-0.22-2.28-0.22
			c-2.25,0-3.98,0.58-5.17,1.75c-1.2,1.17-1.79,2.9-1.79,5.18c0,2.28,0.6,4.01,1.79,5.18c1.2,1.17,2.92,1.76,5.17,1.76
			c0.75,0,1.51-0.07,2.28-0.22c0.77-0.15,1.47-0.34,2.1-0.58l0.59,3.03c-0.35,0.18-0.76,0.33-1.2,0.46
			c-0.44,0.13-0.91,0.23-1.39,0.32c-0.48,0.09-0.98,0.16-1.5,0.21c-0.51,0.05-1.02,0.07-1.51,0.07c-1.7,0-3.2-0.26-4.5-0.77
			c-1.3-0.51-2.4-1.22-3.29-2.13c-0.89-0.91-1.56-1.99-2.01-3.23c-0.46-1.25-0.68-2.61-0.68-4.09c0-1.48,0.23-2.85,0.68-4.09
			c0.45-1.25,1.13-2.32,2.01-3.23c0.89-0.91,1.99-1.62,3.29-2.13C98.13,200.55,99.63,200.29,101.33,200.29z"/>
		<path class="st3" d="M123.5,214.76c0,0.87-0.18,1.67-0.53,2.4c-0.35,0.73-0.85,1.36-1.5,1.9c-0.64,0.53-1.42,0.95-2.33,1.25
			c-0.91,0.3-1.92,0.44-3.02,0.44c-1.05,0-2.1-0.12-3.16-0.34c-1.06-0.23-2.03-0.56-2.92-0.99l0.86-3.17
			c0.71,0.34,1.51,0.62,2.39,0.86c0.88,0.24,1.78,0.36,2.71,0.36c0.99,0,1.79-0.2,2.42-0.61c0.62-0.41,0.93-0.99,0.93-1.76
			c0-0.71-0.3-1.29-0.89-1.75c-0.59-0.45-1.5-0.93-2.73-1.42c-0.87-0.36-1.64-0.73-2.31-1.11c-0.67-0.39-1.24-0.82-1.69-1.29
			c-0.46-0.47-0.81-1-1.05-1.59c-0.25-0.58-0.37-1.24-0.37-1.97c0-1.82,0.62-3.22,1.85-4.19c1.24-0.98,2.89-1.47,4.96-1.47
			c1.07,0,2.05,0.1,2.94,0.3c0.89,0.2,1.75,0.51,2.58,0.95l-0.77,3.17c-0.69-0.34-1.42-0.61-2.18-0.81
			c-0.76-0.21-1.54-0.31-2.33-0.31c-0.87,0-1.57,0.16-2.1,0.49c-0.53,0.32-0.8,0.83-0.8,1.52c0,0.32,0.04,0.59,0.13,0.83
			c0.09,0.24,0.25,0.46,0.49,0.67c0.24,0.21,0.55,0.42,0.93,0.62s0.87,0.44,1.47,0.7c0.79,0.34,1.55,0.69,2.27,1.07
			c0.72,0.37,1.36,0.81,1.91,1.3s1,1.07,1.34,1.72C123.34,213.16,123.5,213.91,123.5,214.76z"/>
		<path class="st3" d="M140.85,200.65v3.29h-5.45v16.45h-4.15v-16.45h-5.45v-3.29H140.85z"/>
	</g>
	<g class="st1">
		<polygon class="st4" points="114.05,176.68 114.05,48.32 99.05,48.32 99.05,176.68 106.55,182.3 		"/>
	</g>
	<g>
		<g>
			<path class="st5" d="M213.09,0c0,0,0,62.2,0,87.44C213.09,206.36,106.55,250,106.55,250h-0.01h0h-0.01
				C106.54,250,0,206.36,0,87.44C0,62.2,0,0,0,0L213.09,0z"/>
		</g>
		<path class="st6" d="M212.93,93.51h-105.8v93.9h74.95C198.48,164.19,211.44,132.33,212.93,93.51z"/>
		<path class="st6" d="M0,86.01c0,2.54,0.07,5.04,0.16,7.51h106.98V48.32H0C0,62.4,0,76.9,0,86.01z"/>
		<path class="st7" d="M31.02,187.41h76.12v-93.9H0.16C1.65,132.33,14.61,164.19,31.02,187.41z"/>
		<path class="st7" d="M107.13,48.32v45.21h105.8c0.1-2.47,0.16-4.97,0.16-7.51c0-9.11,0-23.62,0-37.7H107.13z"/>
		<g>
			<polyline class="st8" points="113.69,188.99 113.69,48.32 99.4,48.32 99.4,188.99 			"/>
		</g>
		<g>
			<rect x="57.98" y="86.71" class="st8" width="98.21" height="15"/>
			<path class="st8" d="M107.11,88.61"/>
		</g>
		<path class="st8" d="M23.06,175.05c5.2,8.9,10.98,16.9,16.99,24.07c23.24-7.43,46.24-9.72,66.5-9.48
			c20.26-0.24,43.26,2.05,66.5,9.49c6.02-7.17,11.79-15.18,16.99-24.07c-6.55-2.79-31.29-9.76-83.49,12.65
			C54.34,165.29,29.6,172.27,23.06,175.05z"/>
	</g>
	<g class="st1">
		<g class="st9">
			<path class="st10" d="M11.36,18.81h3.18v-4.68l2.39,0.23c0.32,0.05,0.48,0.14,0.48,0.28c0,0.24-0.16,0.43-0.48,0.58
				c-0.07,1.29-0.1,2.48-0.1,3.58h5.46c0,7.01-0.18,11.43-0.53,13.26c-0.22,1.76-0.69,2.97-1.42,3.63
				c-0.76,0.71-2.07,1.07-3.91,1.07l-1.09-2.29c1.95,0,3.1-0.2,3.46-0.61c0.36-0.34,0.64-1.12,0.84-2.34
				c0.29-1.32,0.44-4.87,0.46-10.65H16.8c-0.07,2.29-0.23,4.36-0.48,6.22c-0.25,1.81-0.7,3.57-1.35,5.26
				c-0.54,1.44-1.35,2.94-2.41,4.5l-2.49-1.02c1.12-1.32,1.98-2.73,2.59-4.22c0.68-1.51,1.14-3.19,1.4-5.06
				c0.25-1.52,0.41-3.42,0.46-5.69h-3.15V18.81z M23.56,17.42h8.84v19.26h-2.18v-2.08h-4.47v2.08h-2.18V17.42z M25.74,32.41h4.47
				V19.4h-4.47V32.41z"/>
			<path class="st10" d="M46.93,13.55l1.78,0.69c0.27,0.12,0.41,0.25,0.41,0.41c0,0.14-0.2,0.26-0.61,0.38
				c1.39,0.8,2.78,1.41,4.17,1.83c1.36,0.44,3.24,0.89,5.67,1.35l-2.08,1.78c-1.95-0.44-3.58-0.93-4.88-1.47v1.19h-9.91v-0.89
				c-1.3,0.54-2.93,1.14-4.88,1.78l-1.78-1.6c2.52-0.64,4.75-1.41,6.68-2.29C43.27,15.88,45.08,14.82,46.93,13.55z M54.55,27.05
				c-0.32,0-0.85,0.03-1.6,0.1c-1.44,0.14-3.05,0.24-4.83,0.31v1.37h7.62v1.78h-7.62V32h9.61v1.88h-9.61v1.09
				c0,0.85-0.28,1.47-0.84,1.88c-0.47,0.41-1.65,0.61-3.53,0.61l-0.92-2.18h1.98c0.69,0,1.07-0.23,1.12-0.69v-0.71H35.42V32h10.52
				v-1.4h-8.43v-1.78h8.43v-1.3c-2.17,0.07-4.53,0.1-7.09,0.1l-1.35-1.68h2.47c5.13,0,9.83-0.23,14.1-0.69l1.45,1.5
				c0.08,0.05,0.13,0.18,0.13,0.38c0,0.07-0.03,0.1-0.1,0.1c-0.15,0-0.3-0.04-0.46-0.13C54.83,27.07,54.66,27.05,54.55,27.05z
				 M39.87,20.39h13.42v4.57H39.87V20.39z M51.2,23.26v-1.17h-9.25v1.17H51.2z M43.04,18.1h7.42c-1.22-0.54-2.44-1.22-3.66-2.03
				c-1.18,0.69-2.35,1.33-3.51,1.91C43.21,18.03,43.13,18.07,43.04,18.1z"/>
			<path class="st10" d="M60.35,20.69h9.81c0.02-0.2,0.02-0.41,0.02-0.61v-4.17c0-0.51-0.07-1.13-0.2-1.88l2.54,0.2
				c0.42,0.02,0.63,0.12,0.63,0.3c0,0.27-0.19,0.53-0.58,0.79v4.75c0,0.2-0.01,0.41-0.02,0.61h9.55v2.19h-9.53
				c0.93,2.91,2.19,5.23,3.76,6.94c1.46,1.81,3.67,3.37,6.66,4.68l-2.08,2.39c-2.56-1.34-4.71-3.18-6.45-5.54
				c-1.02-1.35-1.92-3.01-2.69-4.98c-0.19,0.63-0.41,1.23-0.66,1.8c-0.78,1.78-2.2,3.52-4.27,5.23c-1.49,1.27-3.25,2.43-5.28,3.48
				l-2.08-1.91c2.12-1,3.78-1.95,4.98-2.85c1.9-1.39,3.23-2.79,3.99-4.19c0.8-1.47,1.32-3.16,1.57-5.06h-9.65V20.69z"/>
			<path class="st10" d="M84.61,15.74h6.25v-1.6l2.08,0.18c0.39,0.02,0.58,0.13,0.58,0.33c0,0.12-0.13,0.31-0.38,0.58v0.51h5.33
				v-1.6l2.11,0.18c0.39,0.02,0.58,0.13,0.58,0.33c0,0.12-0.14,0.31-0.41,0.58v0.51h5.97v1.98h-5.97v1.47h-2.29v-1.47h-5.33v1.47
				h-2.29v-1.47h-6.25V15.74z M86.7,19.8h18.06v1.88h-2.9v2.18h4.17v1.98h-4.17v2.49h3.58v1.88h-8.33V32h7.72v1.98h-7.72v2.97h-2.29
				v-2.97H86.8V32h8.03v-1.78h-8.64v-1.88h3.79v-2.49h-4.37v-1.98h4.37v-2.18H86.7V19.8z M94.83,23.87v-2.18h-2.69v2.18H94.83z
				 M94.83,28.34v-2.49h-2.69v2.49H94.83z M99.68,23.87v-2.18h-2.57v2.18H99.68z M99.68,28.34v-2.49h-2.57v2.49H99.68z"/>
			<path class="st10" d="M117.34,14.24l2.54,0.18c0.42,0.02,0.63,0.12,0.63,0.31c0,0.29-0.19,0.56-0.58,0.81v1.37
				c0,1.91-0.14,3.68-0.41,5.31c0.88,2.32,1.96,4.33,3.25,6.02c1.68,2.24,4.13,4.45,7.37,6.63l-2.87,1.8
				c-3.1-2.85-5.32-5.33-6.66-7.44c-0.66-1.07-1.29-2.27-1.91-3.61c-0.07,0.25-0.15,0.5-0.25,0.74c-0.76,2.1-2.17,4.15-4.22,6.15
				c-1.47,1.47-3.22,2.83-5.23,4.06l-2.08-1.88c2.1-1.2,3.74-2.34,4.93-3.41c1.88-1.68,3.19-3.35,3.94-5.01
				c1.17-2.59,1.75-5.72,1.75-9.38v-0.79C117.54,15.6,117.47,14.97,117.34,14.24z"/>
			<path class="st10" d="M132.56,23.56l1.88,0.15c0.27,0.02,0.41,0.1,0.41,0.25c0,0.12-0.1,0.24-0.3,0.38
				c-0.1,2.93-0.24,5.1-0.41,6.5c-0.14,1.03-0.33,2.08-0.58,3.13l-2.08-0.38c0.32-1.19,0.53-2.18,0.64-3
				C132.34,29.13,132.49,26.78,132.56,23.56z M131.77,19.8h9.63v2.08h-3.48v15.07h-2.19V21.89h-3.96V19.8z M132.56,15.64h8.13v2.08
				h-8.13V15.64z M139.39,23.56h1.8c-0.05,0.9-0.08,1.67-0.08,2.31c0,2.12,0.22,4.46,0.66,7.01l-1.88,0.2
				c-0.44-2.49-0.66-4.9-0.66-7.22C139.24,25.13,139.29,24.36,139.39,23.56z M142.39,18.1h4.65v-3.96l2.03,0.18
				c0.37,0.02,0.56,0.13,0.56,0.33c0,0.1-0.14,0.26-0.41,0.48v2.97h4.88v12.22h-2.19v-1.5h-2.69v8.13h-2.18v-8.13h-2.47v1.6h-2.19
				V18.1z M144.58,22.37h2.47v-2.29h-2.47V22.37z M144.58,26.84h2.47v-2.49h-2.47V26.84z M149.23,20.08v2.29h2.69v-2.29H149.23z
				 M149.23,24.35v2.49h2.69v-2.49H149.23z"/>
			<path class="st10" d="M163.59,15.79c-0.1,0-0.27,0.03-0.51,0.1c-0.81,0.25-1.74,0.49-2.79,0.71v1.12h3.38v1.68h-3.38v1.29h3.38
				v1.68h-3.38v1.3h14.79v-1.3h-3.28v-1.68h3.28V19.4h-3.28v-1.68h3.28v-1.3h-3.38v-1.88h5.56v9.12h1.68v4.95h-2.19v-3.07h-18.04
				v3.07h-2.19v-4.95h1.58v-9.22l1.07,0.53c0.59-0.1,1.15-0.22,1.68-0.36c0.69-0.19,1.34-0.45,1.93-0.79l1.37,1.42
				c0.14,0.14,0.2,0.3,0.2,0.48c0,0.12-0.07,0.18-0.2,0.18L163.59,15.79z M171.99,26.44c0.18,0,0.36,0.07,0.53,0.2l1.14,0.71
				c0.14,0.08,0.2,0.18,0.2,0.28c0,0.2-0.16,0.41-0.48,0.61l-3.83,2.77h9.1v1.98h-9.73v1.3c0,0.98-0.31,1.7-0.94,2.16
				c-0.53,0.47-1.84,0.71-3.94,0.71l-0.89-2.18h2.29c0.81,0,1.25-0.36,1.29-1.09v-0.89H156.7v-1.98h10.04v-1.19l1.4,0.18l1.7-1.55
				h-8.15v-1.8h9.81L171.99,26.44z M169.4,14.14l1.37,0.66c0.15,0.07,0.23,0.14,0.23,0.23c0,0.17-0.14,0.3-0.41,0.41
				c-0.47,0.41-0.93,0.77-1.37,1.09c0.58,0.37,1.13,0.77,1.68,1.19l-1.19,1.09c-0.61-0.49-1.22-0.95-1.83-1.37
				c-0.64,0.39-1.42,0.81-2.34,1.27l-1.09-1.09c0.76-0.37,1.44-0.75,2.03-1.12c-0.65-0.39-1.29-0.74-1.93-1.07l1.09-0.99
				c0.73,0.36,1.44,0.75,2.13,1.17C168.34,15.19,168.88,14.7,169.4,14.14z M169.5,18.99l1.37,0.66c0.15,0.07,0.23,0.15,0.23,0.25
				c0,0.17-0.14,0.3-0.41,0.38c-0.46,0.39-0.9,0.75-1.32,1.07c0.49,0.36,0.97,0.73,1.42,1.12l-1.19,1.09
				c-0.53-0.46-1.05-0.89-1.57-1.3c-0.66,0.41-1.46,0.84-2.39,1.3l-1.09-1.09c0.81-0.39,1.53-0.79,2.16-1.19
				c-0.69-0.47-1.38-0.91-2.06-1.3l1.09-0.99c0.76,0.42,1.52,0.89,2.26,1.4C168.51,19.98,169.01,19.52,169.5,18.99z"/>
			<path class="st10" d="M182.64,15.03h4.57c0.12-0.2,0.22-0.3,0.3-0.3l1.88,1.5l-2.59,6.15c1.46,1.69,2.18,3.25,2.18,4.68
				c0,1.52-0.36,2.74-1.09,3.63c-0.71,0.88-1.64,1.32-2.77,1.32l-0.89-2.18c1.09-0.2,1.79-0.56,2.11-1.07
				c0.3-0.42,0.46-1.06,0.46-1.91c0-1.08-0.73-2.51-2.19-4.27l2.06-5.57h-2.95v20.25h-2.19V15.03H182.64z M189.5,25.75h14.18v1.98
				h-4.27v6.15c0,0.61,0.27,0.91,0.81,0.91h0.79c0.36,0,0.63-0.12,0.81-0.36c0.17-0.17,0.33-0.81,0.48-1.93l2.18,0.58
				c-0.22,1.51-0.56,2.49-1.02,2.95c-0.49,0.49-1.12,0.74-1.88,0.74h-1.88c-1.66,0-2.49-0.6-2.49-1.8v-7.24h-1.91
				c-0.09,2.51-0.53,4.37-1.32,5.59c-0.74,1.27-2.38,2.42-4.9,3.45l-1.48-1.7c2.13-0.76,3.55-1.62,4.24-2.57
				c0.76-0.88,1.2-2.47,1.3-4.78h-3.66V25.75z M195.25,14.14l2.26,0.18c0.42,0.02,0.63,0.13,0.63,0.33c0,0.12-0.17,0.31-0.51,0.58
				v1.58h5.87v5.67h-2.19v-3.66h-9.63v3.66h-2.18v-5.67h5.74V14.14z M192.78,21.48h7.44v1.98h-7.44V21.48z"/>
		</g>
	</g>
	<line class="st11" x1="212.47" y1="48.53" x2="1.16" y2="48.53"/>
</g>
</svg>
