<?xml version="1.0" encoding="utf-8"?>
<!-- Generator: Adobe Illustrator 23.0.3, SVG Export Plug-In . SVG Version: 6.00 Build 0)  -->
<svg version="1.1" id="Layer_2" xmlns="http://www.w3.org/2000/svg" xmlns:xlink="http://www.w3.org/1999/xlink" x="0px" y="0px"
	 viewBox="0 0 96.55 112.52" style="enable-background:new 0 0 96.55 112.52;" xml:space="preserve">
<style type="text/css">
	.st0{display:none;}
	.st1{display:inline;}
	.st2{fill:none;stroke:#000000;stroke-width:3.0063;}
	.st3{fill:#FFFFFF;}
	.st4{fill:#003976;}
	.st5{fill:#910028;}
	.st6{fill:#FFCB23;}
	.st7{fill:none;stroke:#FFFFFF;stroke-width:1.3007;}
</style>
<g class="st0">
	<path class="st1" d="M116.21,34.45h4.5v-6.62l3.38,0.32c0.46,0.07,0.68,0.2,0.68,0.4c0,0.34-0.23,0.61-0.68,0.83
		c-0.1,1.82-0.14,3.52-0.14,5.08h7.74c0,9.94-0.25,16.2-0.76,18.79c-0.31,2.5-0.98,4.21-2.02,5.15c-1.08,1.01-2.93,1.51-5.54,1.51
		l-1.55-3.24c2.76,0,4.39-0.29,4.9-0.86c0.5-0.48,0.9-1.58,1.19-3.31c0.41-1.87,0.62-6.9,0.65-15.08h-4.64
		c-0.1,3.24-0.32,6.18-0.68,8.82c-0.36,2.57-1,5.05-1.91,7.45c-0.77,2.04-1.91,4.16-3.42,6.37l-3.53-1.44
		c1.58-1.87,2.81-3.86,3.67-5.98c0.96-2.14,1.62-4.52,1.98-7.16c0.36-2.16,0.58-4.85,0.65-8.06h-4.46V34.45z M133.49,32.47h12.53
		v27.29h-3.1v-2.95h-6.34v2.95h-3.1V32.47z M136.59,53.71h6.34V35.28h-6.34V53.71z"/>
	<path class="st1" d="M167.69,27l2.52,0.97c0.38,0.17,0.58,0.36,0.58,0.58c0,0.19-0.29,0.37-0.86,0.54c1.97,1.13,3.94,1.99,5.9,2.59
		c1.92,0.62,4.6,1.26,8.03,1.91l-2.95,2.52c-2.76-0.62-5.06-1.32-6.91-2.09v1.69h-14.04v-1.26c-1.85,0.77-4.15,1.61-6.91,2.52
		l-2.52-2.27c3.58-0.91,6.73-1.99,9.47-3.24C162.51,30.29,165.07,28.8,167.69,27z M178.49,46.11c-0.46,0-1.21,0.05-2.27,0.14
		c-2.04,0.19-4.32,0.34-6.84,0.43v1.94h10.8v2.52h-10.8v1.98h13.61v2.66h-13.61v1.55c0,1.2-0.4,2.09-1.19,2.66
		c-0.67,0.58-2.34,0.86-5,0.86l-1.3-3.1h2.81c0.98,0,1.51-0.32,1.58-0.97V55.8h-14.9v-2.66h14.9v-1.98h-11.95v-2.52h11.95V46.8
		c-3.07,0.1-6.42,0.14-10.04,0.14l-1.91-2.38h3.49c7.27,0,13.93-0.32,19.98-0.97l2.05,2.12c0.12,0.07,0.18,0.25,0.18,0.54
		c0,0.1-0.05,0.14-0.14,0.14c-0.22,0-0.43-0.06-0.65-0.18C178.89,46.15,178.63,46.11,178.49,46.11z M157.68,36.68h19.01v6.48h-19.01
		V36.68z M173.74,40.75v-1.66h-13.1v1.66H173.74z M162.18,33.44h10.51c-1.73-0.77-3.46-1.73-5.18-2.88
		c-1.68,0.98-3.34,1.88-4.97,2.7C162.42,33.33,162.3,33.39,162.18,33.44z"/>
	<path class="st1" d="M187.78,37.11h13.9c0.02-0.29,0.04-0.58,0.04-0.86v-5.9c0-0.72-0.1-1.61-0.29-2.66l3.6,0.29
		c0.6,0.02,0.9,0.17,0.9,0.43c0,0.38-0.28,0.76-0.83,1.12v6.73c0,0.29-0.01,0.58-0.04,0.86h13.54v3.1h-13.5
		c1.32,4.13,3.1,7.4,5.33,9.83c2.06,2.57,5.21,4.78,9.43,6.62l-2.95,3.38c-3.62-1.9-6.67-4.51-9.14-7.85
		c-1.44-1.92-2.71-4.27-3.82-7.06c-0.26,0.89-0.58,1.74-0.94,2.56c-1.1,2.52-3.12,4.99-6.05,7.42c-2.11,1.8-4.61,3.44-7.49,4.93
		l-2.95-2.7c3-1.42,5.35-2.76,7.06-4.03c2.69-1.97,4.57-3.95,5.65-5.94c1.13-2.09,1.87-4.48,2.23-7.16h-13.68V37.11z"/>
	<path class="st1" d="M223.24,30.09h8.86v-2.27l2.95,0.25c0.55,0.02,0.83,0.18,0.83,0.47c0,0.17-0.18,0.44-0.54,0.83v0.72h7.56
		v-2.27l2.99,0.25c0.55,0.02,0.83,0.18,0.83,0.47c0,0.17-0.19,0.44-0.58,0.83v0.72h8.46v2.81h-8.46v2.09h-3.24V32.9h-7.56v2.09
		h-3.24V32.9h-8.86V30.09z M226.19,35.85h25.6v2.66h-4.1v3.1h5.9v2.81h-5.9v3.53h5.08v2.66h-11.81v2.52h10.94v2.81h-10.94v4.21
		h-3.24v-4.21h-11.38v-2.81h11.38v-2.52h-12.24v-2.66h5.36v-3.53h-6.19v-2.81h6.19v-3.1h-4.64V35.85z M237.71,41.61v-3.1h-3.82v3.1
		H237.71z M237.71,47.95v-3.53h-3.82v3.53H237.71z M244.59,41.61v-3.1h-3.64v3.1H244.59z M244.59,47.95v-3.53h-3.64v3.53H244.59z"/>
	<path class="st1" d="M273.57,27.97l3.6,0.25c0.6,0.02,0.9,0.17,0.9,0.43c0,0.41-0.28,0.79-0.83,1.15v1.94
		c0,2.71-0.19,5.22-0.58,7.52c1.25,3.29,2.78,6.13,4.61,8.53c2.38,3.17,5.86,6.3,10.44,9.4l-4.07,2.56
		c-4.39-4.03-7.54-7.55-9.43-10.55c-0.94-1.51-1.84-3.22-2.7-5.11c-0.1,0.36-0.22,0.71-0.36,1.04c-1.08,2.98-3.07,5.88-5.98,8.71
		c-2.09,2.09-4.56,4.01-7.42,5.76l-2.95-2.66c2.98-1.7,5.3-3.31,6.98-4.82c2.66-2.38,4.52-4.74,5.58-7.09
		c1.66-3.67,2.48-8.1,2.48-13.28v-1.12C273.85,29.89,273.76,29,273.57,27.97z"/>
	<path class="st1" d="M296.21,41.18l2.66,0.22c0.38,0.02,0.58,0.14,0.58,0.36c0,0.17-0.14,0.35-0.43,0.54
		c-0.14,4.15-0.34,7.22-0.58,9.22c-0.19,1.46-0.47,2.94-0.83,4.43l-2.95-0.54c0.46-1.68,0.76-3.1,0.9-4.25
		C295.9,49.07,296.11,45.74,296.21,41.18z M295.09,35.85h13.64v2.95h-4.93v21.35h-3.1V38.81h-5.62V35.85z M296.21,29.95h11.52v2.95
		h-11.52V29.95z M305.89,41.18h2.56c-0.07,1.27-0.11,2.36-0.11,3.28c0,3,0.31,6.31,0.94,9.94l-2.66,0.29
		c-0.62-3.53-0.94-6.94-0.94-10.22C305.68,43.4,305.75,42.31,305.89,41.18z M310.14,33.44h6.59v-5.62l2.88,0.25
		c0.53,0.02,0.79,0.18,0.79,0.47c0,0.14-0.19,0.37-0.58,0.68v4.21h6.91v17.32h-3.1v-2.12h-3.82v11.52h-3.1V48.63h-3.49v2.27h-3.1
		V33.44z M313.24,39.49h3.49v-3.24h-3.49V39.49z M313.24,45.83h3.49V42.3h-3.49V45.83z M319.83,36.25v3.24h3.82v-3.24H319.83z
		 M319.83,42.3v3.53h3.82V42.3H319.83z"/>
	<path class="st1" d="M341.25,30.17c-0.14,0-0.38,0.05-0.72,0.14c-1.15,0.36-2.47,0.7-3.96,1.01v1.58h4.79v2.38h-4.79v1.84h4.79
		v2.38h-4.79v1.84h20.95v-1.84h-4.64v-2.38h4.64v-1.84h-4.64V32.9h4.64v-1.84h-4.79V28.4h7.88v12.92h2.38v7.02h-3.1v-4.36h-25.56
		v4.36h-3.1v-7.02h2.23V28.26l1.51,0.76c0.84-0.14,1.63-0.31,2.38-0.5c0.98-0.26,1.9-0.64,2.74-1.12l1.94,2.02
		c0.19,0.19,0.29,0.42,0.29,0.68c0,0.17-0.1,0.25-0.29,0.25L341.25,30.17z M353.16,45.25c0.26,0,0.52,0.1,0.76,0.29l1.62,1.01
		c0.19,0.12,0.29,0.25,0.29,0.4c0,0.29-0.23,0.58-0.68,0.86l-5.44,3.92h12.89v2.81h-13.79v1.84c0,1.39-0.44,2.41-1.33,3.06
		c-0.74,0.67-2.6,1.01-5.58,1.01l-1.26-3.1h3.24c1.15,0,1.76-0.52,1.84-1.55v-1.26h-14.22v-2.81h14.22v-1.69l1.98,0.25l2.41-2.2
		h-11.56v-2.56h13.9L353.16,45.25z M349.49,27.83l1.94,0.94c0.22,0.1,0.32,0.2,0.32,0.32c0,0.24-0.19,0.43-0.58,0.58
		c-0.67,0.58-1.32,1.09-1.94,1.55c0.82,0.53,1.61,1.09,2.38,1.69l-1.69,1.55c-0.86-0.7-1.73-1.34-2.59-1.94
		c-0.91,0.55-2.02,1.15-3.31,1.8l-1.55-1.55c1.08-0.53,2.04-1.06,2.88-1.58c-0.91-0.55-1.82-1.06-2.74-1.51l1.55-1.4
		c1.03,0.5,2.04,1.06,3.02,1.66C347.98,29.31,348.75,28.62,349.49,27.83z M349.63,34.7l1.94,0.94c0.22,0.1,0.32,0.22,0.32,0.36
		c0,0.24-0.19,0.42-0.58,0.54c-0.65,0.55-1.27,1.06-1.87,1.51c0.7,0.5,1.37,1.03,2.02,1.58l-1.69,1.55
		c-0.74-0.65-1.49-1.26-2.23-1.84c-0.94,0.58-2.06,1.19-3.38,1.84l-1.55-1.55c1.15-0.55,2.17-1.12,3.06-1.69
		c-0.98-0.67-1.96-1.28-2.92-1.84l1.55-1.4c1.08,0.6,2.15,1.26,3.2,1.98C348.23,36.11,348.94,35.45,349.63,34.7z"/>
	<path class="st1" d="M369.33,29.09h6.48c0.17-0.29,0.31-0.43,0.43-0.43l2.66,2.12l-3.67,8.71c2.06,2.4,3.1,4.61,3.1,6.62
		c0,2.16-0.52,3.88-1.55,5.15c-1.01,1.25-2.32,1.87-3.92,1.87l-1.26-3.1c1.54-0.29,2.53-0.79,2.99-1.51c0.43-0.6,0.65-1.5,0.65-2.7
		c0-1.54-1.03-3.55-3.1-6.05l2.92-7.88h-4.18v28.69h-3.1v-31.5H369.33z M379.05,44.28h20.09v2.81h-6.05v8.71
		c0,0.86,0.38,1.3,1.15,1.3h1.12c0.5,0,0.89-0.17,1.15-0.5c0.24-0.24,0.47-1.15,0.68-2.74l3.1,0.83c-0.31,2.14-0.79,3.53-1.44,4.18
		c-0.7,0.7-1.58,1.04-2.66,1.04h-2.66c-2.35,0-3.53-0.85-3.53-2.56V47.09h-2.7c-0.12,3.55-0.74,6.19-1.87,7.92
		c-1.06,1.8-3.37,3.43-6.95,4.9l-2.09-2.41c3.02-1.08,5.03-2.29,6.01-3.64c1.08-1.25,1.69-3.5,1.84-6.77h-5.18V44.28z M387.18,27.83
		l3.2,0.25c0.6,0.02,0.9,0.18,0.9,0.47c0,0.17-0.24,0.44-0.72,0.83v2.23h8.32v8.03h-3.1v-5.18h-13.64v5.18h-3.1v-8.03h8.14V27.83z
		 M383.69,38.23h10.55v2.81h-10.55V38.23z"/>
	<path class="st1" d="M120.21,66.34c0.3,0,0.61,0.01,0.92,0.04c0.31,0.03,0.61,0.07,0.91,0.13c0.29,0.05,0.58,0.12,0.85,0.2
		s0.51,0.17,0.73,0.28l-0.36,1.84c-0.38-0.14-0.81-0.26-1.28-0.35c-0.47-0.09-0.93-0.13-1.39-0.13c-1.37,0-2.42,0.36-3.14,1.07
		s-1.09,1.76-1.09,3.15s0.36,2.43,1.09,3.15s1.77,1.07,3.14,1.07c0.46,0,0.92-0.04,1.39-0.13c0.47-0.09,0.89-0.21,1.28-0.35
		l0.36,1.84c-0.22,0.11-0.46,0.2-0.73,0.28s-0.55,0.14-0.85,0.2c-0.29,0.05-0.6,0.09-0.91,0.13c-0.31,0.03-0.62,0.04-0.92,0.04
		c-1.03,0-1.94-0.16-2.74-0.47s-1.46-0.74-2-1.3c-0.54-0.55-0.95-1.21-1.22-1.96c-0.28-0.76-0.41-1.58-0.41-2.48
		c0-0.9,0.14-1.73,0.41-2.48c0.28-0.76,0.68-1.41,1.22-1.96c0.54-0.55,1.21-0.98,2-1.3C118.26,66.5,119.17,66.34,120.21,66.34z"/>
	<path class="st1" d="M129.93,77.61c-0.32,0.31-0.71,0.58-1.17,0.79c-0.46,0.22-0.98,0.32-1.58,0.32c-0.38,0-0.73-0.06-1.04-0.19
		s-0.58-0.3-0.79-0.52c-0.22-0.22-0.38-0.48-0.5-0.78c-0.12-0.3-0.18-0.63-0.18-0.99c0-0.8,0.27-1.42,0.81-1.84
		c0.54-0.42,1.28-0.66,2.21-0.72c0.36-0.02,0.73-0.04,1.12-0.05s0.73-0.02,1.04-0.04v-0.31c0-0.56-0.14-0.99-0.41-1.29
		c-0.28-0.29-0.71-0.44-1.3-0.44c-0.46,0-0.89,0.05-1.3,0.16c-0.41,0.11-0.77,0.25-1.08,0.41l-0.49-1.73
		c0.46-0.26,0.96-0.46,1.51-0.6c0.55-0.14,1.15-0.21,1.78-0.21c1.16,0,2.08,0.32,2.75,0.95c0.67,0.64,1,1.58,1,2.83v5.17h-2.38
		V77.61z M128.07,77.05c0.35,0,0.67-0.06,0.97-0.18s0.56-0.27,0.79-0.45v-1.39c-0.25,0.02-0.52,0.05-0.81,0.07
		c-0.29,0.02-0.55,0.05-0.79,0.09c-0.36,0.06-0.65,0.16-0.86,0.3s-0.32,0.37-0.32,0.69c0,0.29,0.09,0.5,0.28,0.65
		S127.76,77.05,128.07,77.05z"/>
	<path class="st1" d="M134.28,78.55v-8.77h2.38v1.19c0.29-0.47,0.65-0.81,1.1-1.04c0.44-0.22,0.93-0.33,1.46-0.33
		c0.56,0,1.05,0.12,1.45,0.36c0.4,0.24,0.73,0.56,0.98,0.96c0.25,0.4,0.44,0.87,0.56,1.4s0.18,1.09,0.18,1.67v4.55h-2.47v-4.57
		c0-0.79-0.12-1.39-0.37-1.8c-0.25-0.41-0.65-0.61-1.21-0.61c-0.36,0-0.67,0.08-0.94,0.25c-0.26,0.17-0.48,0.37-0.65,0.59v6.14
		H134.28z"/>
	<path class="st1" d="M149.19,77.61c-0.32,0.31-0.71,0.58-1.17,0.79c-0.46,0.22-0.98,0.32-1.58,0.32c-0.38,0-0.73-0.06-1.04-0.19
		s-0.58-0.3-0.79-0.52c-0.22-0.22-0.38-0.48-0.5-0.78c-0.12-0.3-0.18-0.63-0.18-0.99c0-0.8,0.27-1.42,0.81-1.84
		c0.54-0.42,1.28-0.66,2.21-0.72c0.36-0.02,0.73-0.04,1.12-0.05s0.73-0.02,1.04-0.04v-0.31c0-0.56-0.14-0.99-0.41-1.29
		c-0.28-0.29-0.71-0.44-1.3-0.44c-0.46,0-0.89,0.05-1.3,0.16c-0.41,0.11-0.77,0.25-1.08,0.41l-0.49-1.73
		c0.46-0.26,0.96-0.46,1.51-0.6c0.55-0.14,1.15-0.21,1.78-0.21c1.16,0,2.08,0.32,2.75,0.95c0.67,0.64,1,1.58,1,2.83v5.17h-2.38
		V77.61z M147.33,77.05c0.35,0,0.67-0.06,0.97-0.18s0.56-0.27,0.79-0.45v-1.39c-0.25,0.02-0.52,0.05-0.81,0.07
		c-0.29,0.02-0.55,0.05-0.79,0.09c-0.36,0.06-0.65,0.16-0.86,0.3s-0.32,0.37-0.32,0.69c0,0.29,0.09,0.5,0.28,0.65
		S147.02,77.05,147.33,77.05z"/>
	<path class="st1" d="M161.5,78.55h-2.36v-1.13c-0.29,0.38-0.66,0.7-1.11,0.94c-0.45,0.25-0.98,0.37-1.59,0.37
		c-0.5,0-0.97-0.11-1.4-0.33c-0.43-0.22-0.79-0.53-1.1-0.93c-0.31-0.4-0.55-0.87-0.72-1.41c-0.17-0.55-0.26-1.14-0.26-1.79
		c0-0.76,0.12-1.42,0.36-2.01c0.24-0.58,0.56-1.07,0.97-1.46c0.41-0.39,0.89-0.69,1.43-0.89s1.13-0.31,1.75-0.31
		c0.31,0,0.6,0.02,0.85,0.06c0.26,0.04,0.49,0.1,0.69,0.17v-4h2.47V78.55z M157.29,76.82c0.38,0,0.72-0.08,1-0.23
		c0.28-0.15,0.53-0.34,0.75-0.58v-4.36c-0.34-0.12-0.73-0.18-1.19-0.18c-0.79,0-1.39,0.24-1.8,0.73c-0.41,0.49-0.61,1.16-0.61,2.02
		c0,0.37,0.04,0.72,0.11,1.04c0.07,0.32,0.18,0.59,0.33,0.82c0.15,0.23,0.34,0.41,0.58,0.54C156.68,76.76,156.96,76.82,157.29,76.82
		z"/>
	<path class="st1" d="M163.37,67.23c0-0.4,0.13-0.73,0.4-1.01c0.26-0.28,0.61-0.41,1.03-0.41c0.42,0,0.77,0.14,1.04,0.41
		c0.27,0.28,0.4,0.61,0.4,1.01c0,0.38-0.13,0.72-0.4,1c-0.27,0.28-0.62,0.42-1.04,0.42c-0.42,0-0.76-0.14-1.03-0.42
		C163.5,67.94,163.37,67.61,163.37,67.23z M163.57,78.55v-8.77h2.47v8.77H163.57z"/>
	<path class="st1" d="M172.93,77.61c-0.32,0.31-0.71,0.58-1.17,0.79c-0.46,0.22-0.98,0.32-1.58,0.32c-0.38,0-0.73-0.06-1.04-0.19
		s-0.58-0.3-0.79-0.52c-0.22-0.22-0.38-0.48-0.5-0.78c-0.12-0.3-0.18-0.63-0.18-0.99c0-0.8,0.27-1.42,0.81-1.84
		c0.54-0.42,1.28-0.66,2.21-0.72c0.36-0.02,0.73-0.04,1.12-0.05s0.73-0.02,1.04-0.04v-0.31c0-0.56-0.14-0.99-0.41-1.29
		c-0.28-0.29-0.71-0.44-1.3-0.44c-0.46,0-0.89,0.05-1.3,0.16c-0.41,0.11-0.77,0.25-1.08,0.41l-0.49-1.73
		c0.46-0.26,0.96-0.46,1.51-0.6c0.55-0.14,1.15-0.21,1.78-0.21c1.16,0,2.08,0.32,2.75,0.95c0.67,0.64,1,1.58,1,2.83v5.17h-2.38
		V77.61z M171.07,77.05c0.35,0,0.67-0.06,0.97-0.18s0.56-0.27,0.79-0.45v-1.39c-0.25,0.02-0.52,0.05-0.81,0.07
		c-0.29,0.02-0.55,0.05-0.79,0.09c-0.36,0.06-0.65,0.16-0.86,0.3s-0.32,0.37-0.32,0.69c0,0.29,0.09,0.5,0.28,0.65
		S170.76,77.05,171.07,77.05z"/>
	<path class="st1" d="M177.28,78.55v-8.77h2.38v1.19c0.29-0.47,0.65-0.81,1.1-1.04c0.44-0.22,0.93-0.33,1.46-0.33
		c0.56,0,1.05,0.12,1.45,0.36c0.4,0.24,0.73,0.56,0.98,0.96c0.25,0.4,0.44,0.87,0.56,1.4s0.18,1.09,0.18,1.67v4.55h-2.47v-4.57
		c0-0.79-0.12-1.39-0.37-1.8c-0.25-0.41-0.65-0.61-1.21-0.61c-0.36,0-0.67,0.08-0.94,0.25c-0.26,0.17-0.48,0.37-0.65,0.59v6.14
		H177.28z"/>
	<path class="st1" d="M196.85,66.34c0.3,0,0.61,0.01,0.92,0.04c0.31,0.03,0.61,0.07,0.91,0.13c0.29,0.05,0.58,0.12,0.85,0.2
		s0.51,0.17,0.73,0.28l-0.36,1.84c-0.38-0.14-0.81-0.26-1.28-0.35c-0.47-0.09-0.93-0.13-1.39-0.13c-1.37,0-2.42,0.36-3.14,1.07
		S193,71.17,193,72.55s0.36,2.43,1.09,3.15s1.77,1.07,3.14,1.07c0.46,0,0.92-0.04,1.39-0.13c0.47-0.09,0.89-0.21,1.28-0.35
		l0.36,1.84c-0.22,0.11-0.46,0.2-0.73,0.28s-0.55,0.14-0.85,0.2c-0.29,0.05-0.6,0.09-0.91,0.13c-0.31,0.03-0.62,0.04-0.92,0.04
		c-1.03,0-1.94-0.16-2.74-0.47s-1.46-0.74-2-1.3c-0.54-0.55-0.95-1.21-1.22-1.96c-0.28-0.76-0.41-1.58-0.41-2.48
		c0-0.9,0.14-1.73,0.41-2.48c0.28-0.76,0.68-1.41,1.22-1.96c0.54-0.55,1.21-0.98,2-1.3C194.91,66.5,195.82,66.34,196.85,66.34z"/>
	<path class="st1" d="M201.87,78.55V65.84h2.47v5c0.29-0.42,0.64-0.73,1.07-0.94c0.43-0.2,0.89-0.31,1.4-0.31
		c0.56,0,1.05,0.12,1.45,0.36c0.4,0.24,0.73,0.56,0.98,0.96c0.25,0.4,0.44,0.87,0.56,1.4s0.18,1.09,0.18,1.67v4.55h-2.47v-4.57
		c0-0.79-0.12-1.39-0.37-1.8c-0.25-0.41-0.65-0.61-1.21-0.61c-0.36,0-0.67,0.08-0.94,0.25c-0.26,0.17-0.48,0.37-0.65,0.59v6.14
		H201.87z"/>
	<path class="st1" d="M211.75,67.23c0-0.4,0.13-0.73,0.4-1.01c0.26-0.28,0.61-0.41,1.03-0.41s0.77,0.14,1.04,0.41
		c0.27,0.28,0.41,0.61,0.41,1.01c0,0.38-0.13,0.72-0.41,1c-0.27,0.28-0.62,0.42-1.04,0.42s-0.76-0.14-1.03-0.42
		C211.88,67.94,211.75,67.61,211.75,67.23z M211.95,78.55v-8.77h2.47v8.77H211.95z"/>
	<path class="st1" d="M216.49,78.55v-8.77h2.38v1.19c0.29-0.47,0.65-0.81,1.1-1.04c0.44-0.22,0.93-0.33,1.46-0.33
		c0.56,0,1.05,0.12,1.45,0.36s0.73,0.56,0.98,0.96c0.25,0.4,0.44,0.87,0.56,1.4s0.18,1.09,0.18,1.67v4.55h-2.47v-4.57
		c0-0.79-0.12-1.39-0.37-1.8s-0.65-0.61-1.21-0.61c-0.36,0-0.67,0.08-0.94,0.25c-0.26,0.17-0.48,0.37-0.65,0.59v6.14H216.49z"/>
	<path class="st1" d="M230.31,69.6c0.58,0,1.09,0.09,1.54,0.27c0.45,0.18,0.83,0.43,1.13,0.76s0.53,0.73,0.68,1.19
		c0.16,0.46,0.23,0.98,0.23,1.56c0,0.24-0.01,0.48-0.04,0.73s-0.08,0.47-0.13,0.67h-5.2c0.02,0.64,0.22,1.15,0.59,1.54
		s0.97,0.57,1.78,0.57c0.47,0,0.92-0.04,1.37-0.13c0.44-0.09,0.84-0.21,1.19-0.37l0.31,1.67c-0.43,0.22-0.92,0.38-1.48,0.5
		c-0.55,0.11-1.12,0.17-1.71,0.17c-0.73,0-1.38-0.11-1.94-0.32c-0.56-0.22-1.04-0.52-1.43-0.92c-0.39-0.4-0.69-0.87-0.89-1.43
		c-0.2-0.56-0.31-1.17-0.31-1.84c0-0.68,0.1-1.31,0.3-1.88c0.2-0.57,0.48-1.06,0.85-1.46s0.83-0.71,1.36-0.94
		C229.04,69.71,229.64,69.6,230.31,69.6z M230.17,71.26c-0.5,0-0.89,0.18-1.16,0.53c-0.27,0.35-0.43,0.8-0.48,1.34h3.01
		c0.06-0.56-0.02-1.02-0.25-1.36C231.06,71.43,230.68,71.26,230.17,71.26z"/>
	<path class="st1" d="M241.6,75.82c0,0.47-0.1,0.88-0.29,1.25c-0.19,0.37-0.46,0.67-0.79,0.92c-0.34,0.25-0.73,0.43-1.19,0.56
		c-0.46,0.13-0.95,0.19-1.49,0.19c-0.46,0-0.95-0.05-1.49-0.15c-0.53-0.1-1-0.24-1.39-0.41l0.36-1.75c0.38,0.16,0.78,0.28,1.19,0.37
		s0.82,0.13,1.24,0.13c0.41,0,0.75-0.06,1.02-0.18c0.27-0.12,0.41-0.34,0.41-0.65c0-0.28-0.13-0.48-0.4-0.6
		c-0.26-0.13-0.61-0.28-1.04-0.46c-0.35-0.14-0.68-0.29-1.01-0.44c-0.32-0.15-0.61-0.33-0.85-0.54c-0.25-0.21-0.44-0.46-0.59-0.74
		c-0.15-0.28-0.22-0.63-0.22-1.05c0-0.46,0.09-0.85,0.26-1.19s0.41-0.61,0.72-0.83c0.31-0.22,0.67-0.38,1.08-0.49
		c0.41-0.11,0.86-0.16,1.34-0.16c0.5,0,0.99,0.05,1.45,0.14s0.91,0.25,1.34,0.48l-0.38,1.76c-0.35-0.16-0.71-0.28-1.09-0.39
		c-0.38-0.1-0.76-0.15-1.14-0.15c-0.35,0-0.63,0.04-0.84,0.12s-0.32,0.24-0.32,0.49c0,0.24,0.13,0.42,0.38,0.54s0.55,0.26,0.9,0.41
		c0.25,0.11,0.54,0.23,0.87,0.37s0.64,0.31,0.93,0.53c0.29,0.22,0.53,0.48,0.74,0.78C241.5,74.99,241.6,75.37,241.6,75.82z"/>
	<path class="st1" d="M246.75,69.6c0.58,0,1.09,0.09,1.54,0.27c0.45,0.18,0.82,0.43,1.13,0.76c0.3,0.33,0.53,0.73,0.68,1.19
		s0.23,0.98,0.23,1.56c0,0.24-0.02,0.48-0.04,0.73c-0.03,0.25-0.08,0.47-0.14,0.67h-5.2c0.02,0.64,0.22,1.15,0.59,1.54
		c0.37,0.38,0.97,0.57,1.78,0.57c0.47,0,0.92-0.04,1.37-0.13c0.44-0.09,0.84-0.21,1.19-0.37l0.31,1.67
		c-0.43,0.22-0.92,0.38-1.48,0.5c-0.55,0.11-1.12,0.17-1.71,0.17c-0.73,0-1.38-0.11-1.94-0.32c-0.56-0.22-1.04-0.52-1.43-0.92
		c-0.39-0.4-0.69-0.87-0.89-1.43c-0.2-0.56-0.31-1.17-0.31-1.84c0-0.68,0.1-1.31,0.3-1.88s0.48-1.06,0.86-1.46
		c0.37-0.4,0.82-0.71,1.36-0.94C245.47,69.71,246.07,69.6,246.75,69.6z M246.6,71.26c-0.5,0-0.89,0.18-1.16,0.53
		c-0.27,0.35-0.43,0.8-0.48,1.34h3.01c0.06-0.56-0.02-1.02-0.25-1.36C247.49,71.43,247.12,71.26,246.6,71.26z"/>
	<path class="st1" d="M263.18,75.13c0,0.53-0.11,1.01-0.32,1.46c-0.22,0.44-0.52,0.83-0.91,1.15c-0.39,0.32-0.86,0.58-1.41,0.76
		c-0.55,0.18-1.16,0.27-1.84,0.27c-0.64,0-1.28-0.07-1.92-0.21c-0.64-0.14-1.23-0.34-1.77-0.6l0.52-1.93
		c0.43,0.2,0.91,0.38,1.45,0.52c0.53,0.14,1.08,0.22,1.65,0.22c0.6,0,1.09-0.12,1.47-0.37c0.38-0.25,0.57-0.6,0.57-1.07
		c0-0.43-0.18-0.79-0.54-1.06c-0.36-0.28-0.91-0.56-1.66-0.86c-0.53-0.22-1-0.44-1.4-0.67c-0.41-0.23-0.75-0.5-1.03-0.78
		c-0.28-0.29-0.49-0.61-0.64-0.96c-0.15-0.35-0.22-0.75-0.22-1.2c0-1.1,0.38-1.95,1.12-2.55c0.75-0.59,1.75-0.89,3.01-0.89
		c0.65,0,1.24,0.06,1.78,0.18c0.54,0.12,1.06,0.31,1.57,0.58l-0.47,1.93c-0.42-0.2-0.86-0.37-1.32-0.49
		c-0.46-0.13-0.93-0.19-1.41-0.19c-0.53,0-0.95,0.1-1.28,0.3s-0.49,0.51-0.49,0.93c0,0.19,0.03,0.36,0.08,0.5
		c0.05,0.14,0.15,0.28,0.3,0.4c0.14,0.13,0.33,0.25,0.57,0.38s0.53,0.27,0.89,0.42c0.48,0.21,0.94,0.42,1.38,0.65
		c0.44,0.23,0.82,0.49,1.16,0.79s0.61,0.65,0.81,1.04C263.08,74.16,263.18,74.61,263.18,75.13z"/>
	<path class="st1" d="M268.69,69.6c0.43,0,0.88,0.04,1.34,0.14c0.46,0.09,0.85,0.22,1.16,0.39l-0.27,1.76
		c-0.56-0.25-1.19-0.38-1.87-0.38c-0.86,0-1.5,0.24-1.91,0.71c-0.41,0.47-0.61,1.12-0.61,1.94c0,0.82,0.2,1.46,0.61,1.94
		c0.41,0.48,1.04,0.72,1.91,0.72c0.68,0,1.31-0.13,1.87-0.38l0.27,1.76c-0.31,0.17-0.7,0.3-1.16,0.39s-0.91,0.13-1.34,0.13
		c-0.76,0-1.42-0.12-2-0.35s-1.06-0.55-1.45-0.96c-0.39-0.41-0.68-0.89-0.88-1.45c-0.2-0.56-0.3-1.16-0.3-1.81
		c0-0.65,0.1-1.25,0.3-1.81c0.2-0.56,0.49-1.04,0.88-1.44c0.39-0.4,0.87-0.72,1.45-0.95C267.27,69.72,267.93,69.6,268.69,69.6z"/>
	<path class="st1" d="M272.61,78.55V65.84h2.47v5c0.29-0.42,0.64-0.73,1.07-0.94s0.89-0.31,1.4-0.31c0.56,0,1.05,0.12,1.45,0.36
		c0.4,0.24,0.73,0.56,0.98,0.96s0.44,0.87,0.56,1.4s0.18,1.09,0.18,1.67v4.55h-2.47v-4.57c0-0.79-0.12-1.39-0.37-1.8
		c-0.25-0.41-0.65-0.61-1.21-0.61c-0.36,0-0.67,0.08-0.94,0.25c-0.26,0.17-0.48,0.37-0.65,0.59v6.14H272.61z"/>
	<path class="st1" d="M291.15,74.18c0,0.64-0.1,1.23-0.3,1.78s-0.49,1.04-0.87,1.45s-0.85,0.74-1.41,0.97
		c-0.56,0.23-1.2,0.35-1.93,0.35c-0.73,0-1.38-0.12-1.94-0.35c-0.56-0.23-1.03-0.56-1.41-0.97c-0.38-0.41-0.68-0.9-0.87-1.45
		c-0.2-0.55-0.3-1.15-0.3-1.78s0.1-1.23,0.3-1.78c0.2-0.55,0.49-1.04,0.87-1.45c0.38-0.41,0.85-0.74,1.41-0.98
		c0.56-0.24,1.2-0.36,1.94-0.36c0.73,0,1.38,0.12,1.93,0.36c0.56,0.24,1.03,0.57,1.41,0.98c0.38,0.41,0.67,0.9,0.87,1.45
		C291.05,72.95,291.15,73.54,291.15,74.18z M288.69,74.18c0-0.36-0.04-0.71-0.11-1.04c-0.07-0.33-0.19-0.62-0.35-0.87
		s-0.38-0.45-0.64-0.6c-0.26-0.15-0.58-0.23-0.95-0.23c-0.38,0-0.71,0.08-0.96,0.23c-0.26,0.15-0.47,0.35-0.63,0.6
		s-0.28,0.54-0.35,0.87c-0.07,0.33-0.11,0.67-0.11,1.04s0.04,0.7,0.11,1.03c0.07,0.32,0.19,0.61,0.35,0.86s0.37,0.45,0.63,0.6
		c0.26,0.15,0.58,0.22,0.96,0.22c0.37,0,0.69-0.07,0.95-0.22c0.26-0.15,0.48-0.35,0.64-0.6s0.28-0.54,0.35-0.86
		C288.65,74.88,288.69,74.54,288.69,74.18z"/>
	<path class="st1" d="M301.11,74.18c0,0.64-0.1,1.23-0.3,1.78s-0.49,1.04-0.87,1.45s-0.85,0.74-1.41,0.97
		c-0.56,0.23-1.2,0.35-1.93,0.35c-0.73,0-1.38-0.12-1.94-0.35c-0.56-0.23-1.03-0.56-1.41-0.97c-0.38-0.41-0.68-0.9-0.87-1.45
		c-0.2-0.55-0.3-1.15-0.3-1.78s0.1-1.23,0.3-1.78c0.2-0.55,0.49-1.04,0.87-1.45c0.38-0.41,0.85-0.74,1.41-0.98
		c0.56-0.24,1.2-0.36,1.94-0.36c0.73,0,1.38,0.12,1.93,0.36c0.56,0.24,1.03,0.57,1.41,0.98c0.38,0.41,0.67,0.9,0.87,1.45
		C301.01,72.95,301.11,73.54,301.11,74.18z M298.64,74.18c0-0.36-0.04-0.71-0.11-1.04c-0.07-0.33-0.19-0.62-0.35-0.87
		s-0.38-0.45-0.64-0.6c-0.26-0.15-0.58-0.23-0.95-0.23c-0.38,0-0.71,0.08-0.96,0.23c-0.26,0.15-0.47,0.35-0.63,0.6
		s-0.28,0.54-0.35,0.87c-0.07,0.33-0.11,0.67-0.11,1.04s0.04,0.7,0.11,1.03c0.07,0.32,0.19,0.61,0.35,0.86s0.37,0.45,0.63,0.6
		c0.26,0.15,0.58,0.22,0.96,0.22c0.37,0,0.69-0.07,0.95-0.22c0.26-0.15,0.48-0.35,0.64-0.6s0.28-0.54,0.35-0.86
		C298.6,74.88,298.64,74.54,298.64,74.18z"/>
	<path class="st1" d="M304.94,76.01c0,0.28,0.06,0.48,0.17,0.62s0.31,0.21,0.58,0.21c0.11,0,0.22-0.01,0.34-0.02
		c0.12-0.01,0.23-0.03,0.34-0.05l0.09,1.73c-0.2,0.06-0.46,0.11-0.76,0.15c-0.3,0.04-0.59,0.06-0.88,0.06
		c-0.44,0-0.82-0.07-1.12-0.21c-0.3-0.14-0.54-0.32-0.73-0.56c-0.19-0.23-0.32-0.5-0.4-0.79c-0.08-0.29-0.12-0.6-0.12-0.91v-10.4
		h2.47V76.01z"/>
	<path class="st1" d="M319.74,74.18c0,0.64-0.1,1.23-0.3,1.78c-0.2,0.55-0.49,1.04-0.87,1.45c-0.38,0.41-0.86,0.74-1.41,0.97
		c-0.56,0.23-1.2,0.35-1.94,0.35c-0.73,0-1.38-0.12-1.93-0.35s-1.03-0.56-1.41-0.97s-0.67-0.9-0.87-1.45s-0.3-1.15-0.3-1.78
		s0.1-1.23,0.3-1.78c0.2-0.55,0.49-1.04,0.87-1.45c0.38-0.41,0.86-0.74,1.41-0.98s1.2-0.36,1.93-0.36c0.73,0,1.38,0.12,1.94,0.36
		c0.56,0.24,1.03,0.57,1.41,0.98c0.38,0.41,0.67,0.9,0.87,1.45C319.64,72.95,319.74,73.54,319.74,74.18z M317.27,74.18
		c0-0.36-0.04-0.71-0.11-1.04s-0.19-0.62-0.35-0.87s-0.38-0.45-0.64-0.6s-0.58-0.23-0.95-0.23c-0.38,0-0.71,0.08-0.96,0.23
		s-0.47,0.35-0.63,0.6s-0.28,0.54-0.35,0.87s-0.11,0.67-0.11,1.04s0.04,0.7,0.11,1.03c0.07,0.32,0.19,0.61,0.35,0.86
		s0.37,0.45,0.63,0.6s0.58,0.22,0.96,0.22c0.37,0,0.69-0.07,0.95-0.22s0.48-0.35,0.64-0.6s0.28-0.54,0.35-0.86
		C317.23,74.88,317.27,74.54,317.27,74.18z"/>
	<path class="st1" d="M321.79,78.55v-6.84h-1.42v-1.93h1.42v-0.31c0-1.31,0.33-2.27,0.99-2.89c0.66-0.62,1.54-0.93,2.63-0.93
		c0.28,0,0.55,0.01,0.82,0.04s0.53,0.09,0.78,0.19l-0.14,1.85c-0.14-0.05-0.3-0.08-0.48-0.1c-0.17-0.02-0.34-0.03-0.51-0.03
		c-0.55,0-0.96,0.13-1.22,0.4c-0.26,0.27-0.4,0.72-0.4,1.34v0.41h2.14v1.93h-2.14v6.84H321.79z"/>
	<path class="st1" d="M339.18,66.56v2h-3.31v9.99h-2.52v-9.99h-3.31v-2H339.18z"/>
	<path class="st1" d="M340.42,78.55V65.84h2.47v5c0.29-0.42,0.65-0.73,1.07-0.94s0.89-0.31,1.39-0.31c0.56,0,1.05,0.12,1.45,0.36
		s0.73,0.56,0.98,0.96s0.44,0.87,0.56,1.4s0.18,1.09,0.18,1.67v4.55h-2.47v-4.57c0-0.79-0.12-1.39-0.37-1.8s-0.65-0.61-1.21-0.61
		c-0.36,0-0.67,0.08-0.94,0.25c-0.26,0.17-0.48,0.37-0.65,0.59v6.14H340.42z"/>
	<path class="st1" d="M354.24,69.6c0.58,0,1.09,0.09,1.54,0.27c0.45,0.18,0.83,0.43,1.13,0.76s0.53,0.73,0.68,1.19
		s0.23,0.98,0.23,1.56c0,0.24-0.02,0.48-0.04,0.73c-0.03,0.25-0.08,0.47-0.13,0.67h-5.2c0.02,0.64,0.22,1.15,0.59,1.54
		s0.97,0.57,1.78,0.57c0.47,0,0.92-0.04,1.37-0.13c0.44-0.09,0.84-0.21,1.19-0.37l0.31,1.67c-0.43,0.22-0.92,0.38-1.48,0.5
		c-0.55,0.11-1.12,0.17-1.71,0.17c-0.73,0-1.38-0.11-1.94-0.32c-0.56-0.22-1.04-0.52-1.43-0.92c-0.39-0.4-0.69-0.87-0.89-1.43
		c-0.2-0.56-0.31-1.17-0.31-1.84c0-0.68,0.1-1.31,0.3-1.88c0.2-0.57,0.48-1.06,0.86-1.46s0.83-0.71,1.36-0.94
		C352.97,69.71,353.57,69.6,354.24,69.6z M354.1,71.26c-0.5,0-0.89,0.18-1.16,0.53c-0.27,0.35-0.43,0.8-0.48,1.34h3.01
		c0.06-0.56-0.02-1.02-0.25-1.36C354.99,71.43,354.61,71.26,354.1,71.26z"/>
	<path class="st1" d="M367.81,74.18c0,0.64-0.1,1.23-0.3,1.78s-0.49,1.04-0.87,1.45s-0.85,0.74-1.41,0.97
		c-0.56,0.23-1.2,0.35-1.93,0.35c-0.73,0-1.38-0.12-1.94-0.35c-0.56-0.23-1.03-0.56-1.41-0.97s-0.67-0.9-0.87-1.45
		c-0.2-0.55-0.3-1.15-0.3-1.78s0.1-1.23,0.3-1.78c0.2-0.55,0.49-1.04,0.87-1.45c0.38-0.41,0.86-0.74,1.41-0.98
		c0.56-0.24,1.2-0.36,1.94-0.36c0.73,0,1.38,0.12,1.93,0.36c0.56,0.24,1.03,0.57,1.41,0.98c0.38,0.41,0.67,0.9,0.87,1.45
		C367.71,72.95,367.81,73.54,367.81,74.18z M365.35,74.18c0-0.36-0.04-0.71-0.11-1.04c-0.07-0.33-0.19-0.62-0.35-0.87
		s-0.38-0.45-0.64-0.6c-0.26-0.15-0.58-0.23-0.95-0.23c-0.38,0-0.71,0.08-0.96,0.23c-0.26,0.15-0.47,0.35-0.63,0.6
		c-0.16,0.25-0.28,0.54-0.35,0.87s-0.11,0.67-0.11,1.04s0.04,0.7,0.11,1.03c0.07,0.32,0.19,0.61,0.35,0.86
		c0.16,0.25,0.37,0.45,0.63,0.6c0.26,0.15,0.58,0.22,0.96,0.22c0.37,0,0.69-0.07,0.95-0.22c0.26-0.15,0.48-0.35,0.64-0.6
		s0.28-0.54,0.35-0.86C365.31,74.88,365.35,74.54,365.35,74.18z"/>
	<path class="st1" d="M371.65,76.01c0,0.28,0.06,0.48,0.17,0.62s0.31,0.21,0.58,0.21c0.11,0,0.22-0.01,0.34-0.02
		c0.12-0.01,0.23-0.03,0.34-0.05l0.09,1.73c-0.2,0.06-0.46,0.11-0.76,0.15s-0.59,0.06-0.88,0.06c-0.44,0-0.82-0.07-1.12-0.21
		s-0.54-0.32-0.73-0.56c-0.19-0.23-0.32-0.5-0.4-0.79s-0.12-0.6-0.12-0.91v-10.4h2.47V76.01z"/>
	<path class="st1" d="M382.81,74.18c0,0.64-0.1,1.23-0.3,1.78s-0.49,1.04-0.87,1.45s-0.85,0.74-1.41,0.97
		c-0.56,0.23-1.2,0.35-1.93,0.35c-0.73,0-1.38-0.12-1.94-0.35c-0.56-0.23-1.03-0.56-1.41-0.97s-0.67-0.9-0.87-1.45
		c-0.2-0.55-0.3-1.15-0.3-1.78s0.1-1.23,0.3-1.78c0.2-0.55,0.49-1.04,0.87-1.45c0.38-0.41,0.86-0.74,1.41-0.98
		c0.56-0.24,1.2-0.36,1.94-0.36c0.73,0,1.38,0.12,1.93,0.36c0.56,0.24,1.03,0.57,1.41,0.98c0.38,0.41,0.67,0.9,0.87,1.45
		C382.71,72.95,382.81,73.54,382.81,74.18z M380.34,74.18c0-0.36-0.04-0.71-0.11-1.04c-0.07-0.33-0.19-0.62-0.35-0.87
		s-0.38-0.45-0.64-0.6c-0.26-0.15-0.58-0.23-0.95-0.23c-0.38,0-0.71,0.08-0.96,0.23c-0.26,0.15-0.47,0.35-0.63,0.6
		c-0.16,0.25-0.28,0.54-0.35,0.87s-0.11,0.67-0.11,1.04s0.04,0.7,0.11,1.03c0.07,0.32,0.19,0.61,0.35,0.86
		c0.16,0.25,0.37,0.45,0.63,0.6c0.26,0.15,0.58,0.22,0.96,0.22c0.37,0,0.69-0.07,0.95-0.22c0.26-0.15,0.48-0.35,0.64-0.6
		s0.28-0.54,0.35-0.86C380.3,74.88,380.34,74.54,380.34,74.18z"/>
	<path class="st1" d="M392.18,69.78v1.64h-1.39c0.2,0.35,0.31,0.75,0.31,1.21c0,0.42-0.08,0.81-0.25,1.17s-0.41,0.67-0.72,0.95
		c-0.31,0.27-0.7,0.48-1.15,0.63s-0.97,0.22-1.55,0.22c-0.02,0-0.06,0-0.12,0c-0.05,0-0.12-0.01-0.19-0.02
		c-0.06,0.1-0.11,0.18-0.14,0.26c-0.04,0.08-0.05,0.18-0.05,0.3c0,0.2,0.09,0.35,0.27,0.43c0.18,0.08,0.41,0.14,0.7,0.16l1.44,0.09
		c0.9,0.06,1.6,0.26,2.12,0.61c0.51,0.35,0.76,0.91,0.76,1.69c0,0.53-0.14,1-0.42,1.4c-0.28,0.41-0.66,0.75-1.13,1.03
		s-1,0.5-1.61,0.65c-0.61,0.15-1.23,0.22-1.88,0.22c-0.5,0-0.99-0.04-1.46-0.12c-0.47-0.08-0.88-0.21-1.25-0.39
		c-0.37-0.18-0.66-0.41-0.87-0.69c-0.22-0.28-0.32-0.63-0.32-1.04c0-0.3,0.07-0.56,0.2-0.78c0.13-0.22,0.3-0.41,0.51-0.58
		c0.21-0.16,0.45-0.29,0.72-0.4c0.27-0.1,0.55-0.19,0.84-0.26c-0.25-0.13-0.45-0.3-0.59-0.5c-0.14-0.2-0.22-0.44-0.22-0.73
		c0-0.2,0.04-0.39,0.12-0.56s0.17-0.32,0.29-0.45s0.24-0.25,0.39-0.34c0.14-0.1,0.29-0.17,0.43-0.23c-0.71-0.2-1.25-0.55-1.63-1.04
		c-0.38-0.49-0.57-1.06-0.57-1.72c0-0.43,0.08-0.83,0.24-1.2s0.4-0.68,0.71-0.95c0.31-0.27,0.7-0.48,1.15-0.64s0.98-0.23,1.57-0.23
		c0.24,0,0.47,0.02,0.69,0.04c0.22,0.03,0.43,0.08,0.64,0.14H392.18z M386.66,78.48c-0.24,0.13-0.48,0.29-0.71,0.49
		c-0.23,0.19-0.35,0.45-0.35,0.77c0,0.37,0.16,0.64,0.48,0.82c0.32,0.17,0.75,0.26,1.3,0.26c0.31,0,0.62-0.03,0.93-0.09
		c0.31-0.06,0.58-0.15,0.82-0.26s0.43-0.25,0.58-0.42c0.15-0.17,0.22-0.37,0.22-0.59c0-0.29-0.12-0.49-0.35-0.6
		c-0.23-0.11-0.54-0.18-0.93-0.21L386.66,78.48z M387.43,74.03c0.46,0,0.82-0.13,1.1-0.39c0.28-0.26,0.41-0.6,0.41-1.04
		c0-0.44-0.14-0.79-0.41-1.05c-0.27-0.26-0.64-0.39-1.11-0.39s-0.84,0.13-1.11,0.38c-0.27,0.25-0.41,0.61-0.41,1.06
		c0,0.44,0.14,0.79,0.41,1.04C386.61,73.91,386.98,74.03,387.43,74.03z"/>
	<path class="st1" d="M394.43,82.26l1.19-3.44l-3.22-9.04h2.56l1.85,6.52l1.78-6.52h2.5l-4.19,12.47H394.43z"/>
</g>
<g>
	<path class="st2" d="M94.4,2.15c0,0,0,26.31,0,37.24c0,51.49-46.12,70.99-46.12,70.99h0h0h0c0,0-46.12-19.51-46.12-70.99
		c0-10.93,0-37.24,0-37.24H94.4z"/>
	<g>
		<path d="M48.06,111.45l-0.2-0.08C47.4,111.18,1.07,91.61,1.07,40V1.07h94.4V40c0,51.61-46.32,71.18-46.79,71.37l-0.2,0.08H48.06z"
			/>
		<path d="M94.4,2.15c0,0,0,26.93,0,37.85c0,51.49-46.12,70.38-46.12,70.38h0h0h0c0,0-46.12-18.89-46.12-70.38
			c0-10.93,0-37.85,0-37.85H94.4 M96.55,0H94.4H2.15H0v2.15V40c0,27.35,12.9,45.57,23.72,56.04c11.69,11.32,23.26,16.13,23.74,16.32
			l0.39,0.16h0.42l0-4.29l0,4.29h0.42l0.39-0.16c0.49-0.2,12.05-5.01,23.74-16.32C83.65,85.57,96.55,67.35,96.55,40V2.15V0L96.55,0z
			"/>
	</g>
	<g>
		<path class="st3" d="M37.89,88.86c0.21,0,0.43,0.01,0.66,0.03c0.22,0.02,0.44,0.05,0.65,0.09c0.21,0.04,0.41,0.08,0.6,0.14
			c0.19,0.06,0.37,0.12,0.52,0.2l-0.26,1.31c-0.27-0.1-0.58-0.19-0.91-0.25c-0.33-0.06-0.66-0.1-0.99-0.1
			c-0.97,0-1.72,0.25-2.24,0.76s-0.78,1.25-0.78,2.24s0.26,1.74,0.78,2.24s1.26,0.76,2.24,0.76c0.33,0,0.66-0.03,0.99-0.1
			c0.33-0.06,0.64-0.15,0.91-0.25l0.26,1.31c-0.15,0.08-0.33,0.14-0.52,0.2c-0.19,0.05-0.39,0.1-0.6,0.14
			c-0.21,0.04-0.43,0.07-0.65,0.09c-0.22,0.02-0.44,0.03-0.66,0.03c-0.74,0-1.39-0.11-1.95-0.33s-1.04-0.53-1.42-0.92
			c-0.38-0.39-0.68-0.86-0.87-1.4c-0.2-0.54-0.3-1.13-0.3-1.77s0.1-1.23,0.3-1.77c0.2-0.54,0.49-1,0.87-1.4
			c0.39-0.39,0.86-0.7,1.42-0.92S37.16,88.86,37.89,88.86z"/>
		<path class="st3" d="M46.01,88.86c0.21,0,0.43,0.01,0.66,0.03c0.22,0.02,0.44,0.05,0.65,0.09c0.21,0.04,0.41,0.08,0.6,0.14
			c0.19,0.06,0.37,0.12,0.52,0.2l-0.26,1.31c-0.27-0.1-0.58-0.19-0.91-0.25c-0.33-0.06-0.66-0.1-0.99-0.1
			c-0.97,0-1.72,0.25-2.24,0.76s-0.78,1.25-0.78,2.24s0.26,1.74,0.78,2.24s1.26,0.76,2.24,0.76c0.33,0,0.66-0.03,0.99-0.1
			c0.33-0.06,0.64-0.15,0.91-0.25l0.26,1.31c-0.15,0.08-0.33,0.14-0.52,0.2c-0.19,0.05-0.39,0.1-0.6,0.14
			c-0.21,0.04-0.43,0.07-0.65,0.09c-0.22,0.02-0.44,0.03-0.66,0.03c-0.74,0-1.39-0.11-1.95-0.33s-1.04-0.53-1.42-0.92
			c-0.38-0.39-0.68-0.86-0.87-1.4c-0.2-0.54-0.3-1.13-0.3-1.77s0.1-1.23,0.3-1.77c0.2-0.54,0.49-1,0.87-1.4
			c0.39-0.39,0.86-0.7,1.42-0.92S45.28,88.86,46.01,88.86z"/>
		<path class="st3" d="M55.61,95.12c0,0.38-0.08,0.72-0.23,1.04c-0.15,0.32-0.37,0.59-0.65,0.82c-0.28,0.23-0.61,0.41-1.01,0.54
			c-0.39,0.13-0.83,0.19-1.31,0.19c-0.45,0-0.91-0.05-1.37-0.15c-0.46-0.1-0.88-0.24-1.26-0.43l0.37-1.37
			c0.31,0.15,0.65,0.27,1.03,0.37c0.38,0.1,0.77,0.15,1.17,0.15c0.43,0,0.78-0.09,1.05-0.26c0.27-0.18,0.4-0.43,0.4-0.76
			c0-0.31-0.13-0.56-0.38-0.76c-0.26-0.2-0.65-0.4-1.18-0.62c-0.38-0.15-0.71-0.31-1-0.48s-0.54-0.35-0.73-0.56
			c-0.2-0.21-0.35-0.43-0.46-0.69c-0.11-0.25-0.16-0.54-0.16-0.85c0-0.79,0.27-1.39,0.8-1.82c0.54-0.42,1.25-0.64,2.15-0.64
			c0.46,0,0.89,0.04,1.27,0.13c0.38,0.09,0.76,0.22,1.12,0.41l-0.33,1.37c-0.3-0.15-0.61-0.26-0.94-0.35s-0.67-0.13-1.01-0.13
			c-0.38,0-0.68,0.07-0.91,0.21c-0.23,0.14-0.35,0.36-0.35,0.66c0,0.14,0.02,0.26,0.06,0.36c0.04,0.1,0.11,0.2,0.21,0.29
			s0.24,0.18,0.4,0.27s0.38,0.19,0.63,0.3c0.34,0.15,0.67,0.3,0.98,0.46c0.31,0.16,0.59,0.35,0.83,0.56s0.43,0.46,0.58,0.74
			C55.54,94.43,55.61,94.75,55.61,95.12z"/>
		<path class="st3" d="M63.12,89.01v1.42h-2.36v7.12h-1.8v-7.12H56.6v-1.42H63.12z"/>
	</g>
	<path class="st4" d="M94.33,42.63h-45.8v40.65h32.45C88.07,73.23,93.68,59.44,94.33,42.63z"/>
	<path class="st4" d="M2.15,39.38c0,1.1,0.03,2.18,0.07,3.25h46.31V23.06H2.15C2.15,29.16,2.15,35.44,2.15,39.38z"/>
	<path class="st5" d="M15.57,83.28h32.96V42.63H2.22C2.86,59.44,8.47,73.23,15.57,83.28z"/>
	<path class="st5" d="M48.53,23.06v19.57h45.8c0.04-1.07,0.07-2.15,0.07-3.25c0-3.95,0-10.22,0-16.32H48.53z"/>
	<g>
		<polygon points="51.37,83.96 51.37,23.07 45.18,23.07 45.18,83.96 48.27,86.4 		"/>
	</g>
	<g>
		<rect x="27.25" y="39.69" class="st6" width="42.52" height="6.49"/>
		<path class="st6" d="M48.52,40.51"/>
	</g>
	<g>
		<polygon class="st6" points="51.52,78.64 51.52,23.06 45.03,23.06 45.03,78.64 48.27,81.07 		"/>
	</g>
	<path class="st6" d="M12.13,77.93c2.25,3.85,4.75,7.32,7.36,10.42c10.06-3.22,20.02-4.21,28.79-4.11
		c8.77-0.1,18.73,0.89,28.79,4.11c2.6-3.1,5.1-6.57,7.36-10.42c-2.83-1.21-13.55-4.23-36.14,5.48
		C25.67,73.7,14.96,76.72,12.13,77.93z"/>
	<g>
		<g>
			<path class="st3" d="M7.07,10.29h1.38V8.27l1.03,0.1c0.14,0.02,0.21,0.06,0.21,0.12c0,0.1-0.07,0.19-0.21,0.25
				C9.45,9.3,9.43,9.82,9.43,10.29h2.37c0,3.04-0.08,4.95-0.23,5.74c-0.1,0.76-0.3,1.29-0.62,1.57c-0.33,0.31-0.9,0.46-1.69,0.46
				l-0.47-0.99c0.84,0,1.34-0.09,1.5-0.26c0.15-0.15,0.27-0.48,0.36-1.01c0.12-0.57,0.19-2.11,0.2-4.61H9.42
				c-0.03,0.99-0.1,1.89-0.21,2.69c-0.11,0.78-0.3,1.54-0.58,2.28c-0.23,0.62-0.58,1.27-1.04,1.95L6.5,17.67
				c0.48-0.57,0.86-1.18,1.12-1.83c0.29-0.65,0.49-1.38,0.6-2.19c0.11-0.66,0.18-1.48,0.2-2.46H7.07V10.29z M12.35,9.69h3.83v8.34
				h-0.95v-0.9h-1.94v0.9h-0.95V9.69z M13.29,16.18h1.94v-5.63h-1.94V16.18z"/>
			<path class="st3" d="M22.47,8.02l0.77,0.3c0.12,0.05,0.18,0.11,0.18,0.18c0,0.06-0.09,0.11-0.26,0.17c0.6,0.34,1.2,0.61,1.8,0.79
				c0.59,0.19,1.4,0.38,2.45,0.58l-0.9,0.77c-0.84-0.19-1.55-0.4-2.11-0.64v0.52H20.1v-0.39c-0.56,0.23-1.27,0.49-2.11,0.77
				l-0.77-0.69c1.09-0.28,2.06-0.61,2.89-0.99C20.88,9.02,21.67,8.57,22.47,8.02z M25.76,13.86c-0.14,0-0.37,0.02-0.69,0.04
				c-0.62,0.06-1.32,0.1-2.09,0.13v0.59h3.3v0.77h-3.3V16h4.16v0.81h-4.16v0.47c0,0.37-0.12,0.64-0.36,0.81
				c-0.21,0.18-0.71,0.26-1.53,0.26l-0.4-0.95h0.86c0.3,0,0.46-0.1,0.48-0.3v-0.31h-4.55V16h4.55v-0.6h-3.65v-0.77h3.65v-0.56
				c-0.94,0.03-1.96,0.04-3.07,0.04l-0.58-0.73h1.07c2.22,0,4.26-0.1,6.1-0.3l0.63,0.65c0.04,0.02,0.05,0.08,0.05,0.16
				c0,0.03-0.01,0.04-0.04,0.04c-0.07,0-0.13-0.02-0.2-0.06C25.89,13.87,25.81,13.86,25.76,13.86z M19.41,10.97h5.81v1.98h-5.81
				V10.97z M24.31,12.22v-0.51h-4v0.51H24.31z M20.78,9.98h3.21c-0.53-0.23-1.06-0.53-1.58-0.88c-0.51,0.3-1.02,0.58-1.52,0.82
				C20.85,9.95,20.82,9.97,20.78,9.98z"/>
			<path class="st3" d="M28.27,11.11h4.25c0.01-0.09,0.01-0.18,0.01-0.26v-1.8c0-0.22-0.03-0.49-0.09-0.81l1.1,0.09
				c0.18,0.01,0.27,0.05,0.27,0.13c0,0.12-0.08,0.23-0.25,0.34v2.06c0,0.09,0,0.18-0.01,0.26h4.14v0.95h-4.13
				c0.4,1.26,0.95,2.26,1.63,3c0.63,0.78,1.59,1.46,2.88,2.02l-0.9,1.03c-1.11-0.58-2.04-1.38-2.79-2.4
				c-0.44-0.59-0.83-1.31-1.17-2.16c-0.08,0.27-0.18,0.53-0.29,0.78c-0.34,0.77-0.95,1.53-1.85,2.27c-0.64,0.55-1.41,1.05-2.29,1.51
				l-0.9-0.82c0.92-0.43,1.63-0.84,2.16-1.23c0.82-0.6,1.4-1.21,1.73-1.81c0.34-0.64,0.57-1.37,0.68-2.19h-4.18V11.11z"/>
			<path class="st3" d="M38.78,8.96h2.71V8.27l0.9,0.08c0.17,0.01,0.25,0.06,0.25,0.14c0,0.05-0.05,0.14-0.17,0.25v0.22h2.31V8.27
				l0.91,0.08c0.17,0.01,0.25,0.06,0.25,0.14c0,0.05-0.06,0.14-0.18,0.25v0.22h2.58v0.86h-2.58v0.64h-0.99V9.82h-2.31v0.64h-0.99
				V9.82h-2.71V8.96z M39.68,10.72h7.82v0.81h-1.25v0.95h1.8v0.86h-1.8v1.08h1.55v0.81h-3.61V16h3.34v0.86h-3.34v1.29H43.2v-1.29
				h-3.48V16h3.48v-0.77h-3.74v-0.81h1.64v-1.08h-1.89v-0.86h1.89v-0.95h-1.42V10.72z M43.2,12.48v-0.95h-1.17v0.95H43.2z
				 M43.2,14.42v-1.08h-1.17v1.08H43.2z M45.3,12.48v-0.95h-1.11v0.95H45.3z M45.3,14.42v-1.08h-1.11v1.08H45.3z"/>
			<path class="st3" d="M52.95,8.31l1.1,0.08c0.18,0.01,0.27,0.05,0.27,0.13c0,0.12-0.08,0.24-0.25,0.35v0.59
				c0,0.83-0.06,1.59-0.18,2.3c0.38,1,0.85,1.87,1.41,2.61c0.73,0.97,1.79,1.92,3.19,2.87l-1.24,0.78c-1.34-1.23-2.3-2.31-2.88-3.22
				c-0.29-0.46-0.56-0.98-0.83-1.56c-0.03,0.11-0.07,0.22-0.11,0.32c-0.33,0.91-0.94,1.8-1.83,2.66c-0.64,0.64-1.39,1.22-2.27,1.76
				l-0.9-0.81c0.91-0.52,1.62-1.01,2.13-1.47c0.81-0.73,1.38-1.45,1.71-2.17c0.51-1.12,0.76-2.47,0.76-4.06V9.13
				C53.03,8.9,53,8.63,52.95,8.31z"/>
			<path class="st3" d="M59.53,12.35l0.81,0.07c0.12,0.01,0.18,0.04,0.18,0.11c0,0.05-0.04,0.11-0.13,0.16
				c-0.04,1.27-0.1,2.21-0.18,2.82c-0.06,0.45-0.14,0.9-0.25,1.35l-0.9-0.17c0.14-0.51,0.23-0.95,0.28-1.3
				C59.44,14.76,59.51,13.74,59.53,12.35z M59.19,10.72h4.17v0.9h-1.51v6.52h-0.95v-6.52h-1.72V10.72z M59.53,8.92h3.52v0.9h-3.52
				V8.92z M62.49,12.35h0.78c-0.02,0.39-0.03,0.72-0.03,1c0,0.92,0.1,1.93,0.29,3.04l-0.81,0.09c-0.19-1.08-0.29-2.12-0.29-3.12
				C62.43,13.03,62.45,12.69,62.49,12.35z M63.79,9.98h2.01V8.27l0.88,0.08c0.16,0.01,0.24,0.06,0.24,0.14
				c0,0.04-0.06,0.11-0.18,0.21v1.29h2.11v5.29h-0.95v-0.65h-1.17v3.52H65.8v-3.52h-1.07v0.69h-0.95V9.98z M64.74,11.83h1.07v-0.99
				h-1.07V11.83z M64.74,13.77h1.07v-1.08h-1.07V13.77z M66.75,10.84v0.99h1.17v-0.99H66.75z M66.75,12.69v1.08h1.17v-1.08H66.75z"
				/>
			<path class="st3" d="M72.97,8.98c-0.04,0-0.12,0.01-0.22,0.04c-0.35,0.11-0.75,0.21-1.21,0.31v0.48H73v0.73h-1.46v0.56H73v0.73
				h-1.46v0.56h6.4v-0.56h-1.42v-0.73h1.42v-0.56h-1.42V9.82h1.42V9.26h-1.46V8.44h2.41v3.95h0.73v2.15h-0.95v-1.33h-7.81v1.33
				h-0.95v-2.15h0.68V8.4l0.46,0.23c0.26-0.04,0.5-0.1,0.73-0.15c0.3-0.08,0.58-0.19,0.84-0.34l0.59,0.62
				c0.06,0.06,0.09,0.13,0.09,0.21c0,0.05-0.03,0.08-0.09,0.08L72.97,8.98z M76.61,13.59c0.08,0,0.16,0.03,0.23,0.09l0.5,0.31
				c0.06,0.04,0.09,0.08,0.09,0.12c0,0.09-0.07,0.18-0.21,0.26l-1.66,1.2h3.94v0.86h-4.21v0.56c0,0.42-0.14,0.74-0.41,0.93
				c-0.23,0.21-0.8,0.31-1.71,0.31l-0.38-0.95h0.99c0.35,0,0.54-0.16,0.56-0.47v-0.38h-4.34v-0.86h4.34v-0.52l0.61,0.08l0.74-0.67
				h-3.53v-0.78h4.25L76.61,13.59z M75.48,8.27l0.59,0.29c0.07,0.03,0.1,0.06,0.1,0.1c0,0.07-0.06,0.13-0.18,0.18
				c-0.21,0.18-0.4,0.33-0.59,0.47c0.25,0.16,0.49,0.33,0.73,0.52l-0.52,0.47c-0.26-0.21-0.53-0.41-0.79-0.59
				c-0.28,0.17-0.62,0.35-1.01,0.55l-0.47-0.47c0.33-0.16,0.62-0.32,0.88-0.48c-0.28-0.17-0.56-0.32-0.84-0.46l0.47-0.43
				c0.32,0.15,0.62,0.32,0.92,0.51C75.02,8.72,75.26,8.51,75.48,8.27z M75.53,10.37l0.59,0.29c0.07,0.03,0.1,0.07,0.1,0.11
				c0,0.07-0.06,0.13-0.18,0.17c-0.2,0.17-0.39,0.32-0.57,0.46c0.21,0.15,0.42,0.32,0.62,0.48l-0.52,0.47
				c-0.23-0.2-0.46-0.38-0.68-0.56c-0.29,0.18-0.63,0.36-1.03,0.56l-0.47-0.47c0.35-0.17,0.66-0.34,0.93-0.52
				c-0.3-0.21-0.6-0.39-0.89-0.56l0.47-0.43c0.33,0.18,0.66,0.39,0.98,0.6C75.1,10.8,75.32,10.6,75.53,10.37z"/>
			<path class="st3" d="M81.22,8.65h1.98c0.05-0.09,0.1-0.13,0.13-0.13l0.81,0.65l-1.12,2.66c0.63,0.73,0.95,1.41,0.95,2.02
				c0,0.66-0.16,1.18-0.47,1.57c-0.31,0.38-0.71,0.57-1.2,0.57l-0.38-0.95c0.47-0.09,0.77-0.24,0.91-0.46
				c0.13-0.18,0.2-0.46,0.2-0.83c0-0.47-0.32-1.08-0.95-1.85l0.89-2.41h-1.28v8.77h-0.95V8.65H81.22z M84.19,13.29h6.14v0.86h-1.85
				v2.66c0,0.26,0.12,0.4,0.35,0.4h0.34c0.15,0,0.27-0.05,0.35-0.15c0.07-0.07,0.14-0.35,0.21-0.84l0.95,0.25
				c-0.09,0.65-0.24,1.08-0.44,1.28c-0.21,0.21-0.48,0.32-0.81,0.32h-0.81c-0.72,0-1.08-0.26-1.08-0.78v-3.13h-0.83
				c-0.04,1.08-0.23,1.89-0.57,2.42c-0.32,0.55-1.03,1.05-2.12,1.5l-0.64-0.74c0.92-0.33,1.54-0.7,1.84-1.11
				c0.33-0.38,0.52-1.07,0.56-2.07h-1.58V13.29z M86.67,8.27l0.98,0.08c0.18,0.01,0.27,0.06,0.27,0.14c0,0.05-0.07,0.14-0.22,0.25
				v0.68h2.54v2.45H89.3v-1.58h-4.17v1.58h-0.95V9.42h2.49V8.27z M85.61,11.45h3.22v0.86h-3.22V11.45z"/>
		</g>
	</g>
	<g>
		<path class="st3" d="M93.11,3.44V40c0,26.1-12.29,43.5-22.6,53.5c-9.91,9.61-19.94,14.44-22.24,15.47
			c-2.29-1.03-12.27-5.82-22.17-15.4C15.76,83.56,3.44,66.14,3.44,40V3.44H93.11 M48.27,110.37l0,1.29L48.27,110.37L48.27,110.37
			 M94.4,2.15H2.15c0,0,0,26.93,0,37.85c0,51.49,46.12,70.38,46.12,70.38h0h0h0c0,0,46.12-18.89,46.12-70.38
			C94.4,29.07,94.4,2.15,94.4,2.15L94.4,2.15z"/>
	</g>
	<line class="st7" x1="94.13" y1="23.15" x2="2.65" y2="23.15"/>
</g>
</svg>
