<?xml version="1.0" encoding="utf-8"?>
<!-- Generator: Adobe Illustrator 23.0.3, SVG Export Plug-In . SVG Version: 6.00 Build 0)  -->
<svg version="1.1" id="Layer_1" xmlns="http://www.w3.org/2000/svg" xmlns:xlink="http://www.w3.org/1999/xlink" x="0px" y="0px"
	 viewBox="0 0 96.55 112.52" style="enable-background:new 0 0 96.55 112.52;" xml:space="preserve">
<style type="text/css">
	.st0{fill:none;stroke:#061922;stroke-width:3.0063;}
	.st1{fill:#061922;}
	.st2{display:none;}
	.st3{display:inline;fill:#FFFFFF;}
	.st4{fill:#003876;}
	.st5{fill:#8F0028;}
	.st6{fill:#FFCA23;}
	.st7{display:inline;}
	.st8{fill:#FFFFFF;}
	.st9{fill:none;stroke:#FFFFFF;stroke-width:1.3007;}
</style>
<g>
	<path class="st0" d="M94.4,2.15c0,0,0,26.31,0,37.24c0,51.49-46.12,70.99-46.12,70.99h0h0h0c0,0-46.12-19.51-46.12-70.99
		c0-10.93,0-37.24,0-37.24H94.4z"/>
	<g>
		<path class="st1" d="M48.06,111.45l-0.2-0.08C47.4,111.18,1.07,91.61,1.07,40V1.07h94.4V40c0,51.61-46.32,71.18-46.79,71.37
			l-0.2,0.08H48.06z"/>
		<path class="st1" d="M94.4,2.15c0,0,0,26.93,0,37.85c0,51.49-46.12,70.38-46.12,70.38h0h0h0c0,0-46.12-18.89-46.12-70.38
			c0-10.93,0-37.85,0-37.85H94.4 M96.55,0H94.4H2.15H0v2.15V40c0,27.35,12.9,45.57,23.72,56.04c11.69,11.32,23.26,16.13,23.74,16.32
			l0.39,0.16h0.42l0-4.29l0,4.29h0.42l0.39-0.16c0.49-0.2,12.05-5.01,23.74-16.32C83.65,85.57,96.55,67.35,96.55,40V2.15V0L96.55,0z
			"/>
	</g>
	<g class="st2">
		<path class="st3" d="M37.89,88.86c0.21,0,0.43,0.01,0.66,0.03c0.22,0.02,0.44,0.05,0.65,0.09c0.21,0.04,0.41,0.08,0.6,0.14
			c0.19,0.06,0.37,0.12,0.52,0.2l-0.26,1.31c-0.27-0.1-0.58-0.19-0.91-0.25c-0.33-0.06-0.66-0.1-0.99-0.1
			c-0.97,0-1.72,0.25-2.24,0.76s-0.78,1.25-0.78,2.24s0.26,1.74,0.78,2.24s1.26,0.76,2.24,0.76c0.33,0,0.66-0.03,0.99-0.1
			c0.33-0.06,0.64-0.15,0.91-0.25l0.26,1.31c-0.15,0.08-0.33,0.14-0.52,0.2c-0.19,0.05-0.39,0.1-0.6,0.14
			c-0.21,0.04-0.43,0.07-0.65,0.09c-0.22,0.02-0.44,0.03-0.66,0.03c-0.74,0-1.39-0.11-1.95-0.33s-1.04-0.53-1.42-0.92
			c-0.38-0.39-0.68-0.86-0.87-1.4c-0.2-0.54-0.3-1.13-0.3-1.77s0.1-1.23,0.3-1.77c0.2-0.54,0.49-1,0.87-1.4
			c0.39-0.39,0.86-0.7,1.42-0.92S37.16,88.86,37.89,88.86z"/>
		<path class="st3" d="M46.01,88.86c0.21,0,0.43,0.01,0.66,0.03c0.22,0.02,0.44,0.05,0.65,0.09c0.21,0.04,0.41,0.08,0.6,0.14
			c0.19,0.06,0.37,0.12,0.52,0.2l-0.26,1.31c-0.27-0.1-0.58-0.19-0.91-0.25c-0.33-0.06-0.66-0.1-0.99-0.1
			c-0.97,0-1.72,0.25-2.24,0.76s-0.78,1.25-0.78,2.24s0.26,1.74,0.78,2.24s1.26,0.76,2.24,0.76c0.33,0,0.66-0.03,0.99-0.1
			c0.33-0.06,0.64-0.15,0.91-0.25l0.26,1.31c-0.15,0.08-0.33,0.14-0.52,0.2c-0.19,0.05-0.39,0.1-0.6,0.14
			c-0.21,0.04-0.43,0.07-0.65,0.09c-0.22,0.02-0.44,0.03-0.66,0.03c-0.74,0-1.39-0.11-1.95-0.33s-1.04-0.53-1.42-0.92
			c-0.38-0.39-0.68-0.86-0.87-1.4c-0.2-0.54-0.3-1.13-0.3-1.77s0.1-1.23,0.3-1.77c0.2-0.54,0.49-1,0.87-1.4
			c0.39-0.39,0.86-0.7,1.42-0.92S45.28,88.86,46.01,88.86z"/>
		<path class="st3" d="M55.61,95.12c0,0.38-0.08,0.72-0.23,1.04c-0.15,0.32-0.37,0.59-0.65,0.82c-0.28,0.23-0.61,0.41-1.01,0.54
			c-0.39,0.13-0.83,0.19-1.31,0.19c-0.45,0-0.91-0.05-1.37-0.15c-0.46-0.1-0.88-0.24-1.26-0.43l0.37-1.37
			c0.31,0.15,0.65,0.27,1.03,0.37c0.38,0.1,0.77,0.15,1.17,0.15c0.43,0,0.78-0.09,1.05-0.26c0.27-0.18,0.4-0.43,0.4-0.76
			c0-0.31-0.13-0.56-0.38-0.76c-0.26-0.2-0.65-0.4-1.18-0.62c-0.38-0.15-0.71-0.31-1-0.48s-0.54-0.35-0.73-0.56
			c-0.2-0.21-0.35-0.43-0.46-0.69c-0.11-0.25-0.16-0.54-0.16-0.85c0-0.79,0.27-1.39,0.8-1.82c0.54-0.42,1.25-0.64,2.15-0.64
			c0.46,0,0.89,0.04,1.27,0.13c0.38,0.09,0.76,0.22,1.12,0.41l-0.33,1.37c-0.3-0.15-0.61-0.26-0.94-0.35s-0.67-0.13-1.01-0.13
			c-0.38,0-0.68,0.07-0.91,0.21c-0.23,0.14-0.35,0.36-0.35,0.66c0,0.14,0.02,0.26,0.06,0.36c0.04,0.1,0.11,0.2,0.21,0.29
			s0.24,0.18,0.4,0.27s0.38,0.19,0.63,0.3c0.34,0.15,0.67,0.3,0.98,0.46c0.31,0.16,0.59,0.35,0.83,0.56s0.43,0.46,0.58,0.74
			C55.54,94.43,55.61,94.75,55.61,95.12z"/>
		<path class="st3" d="M63.12,89.01v1.42h-2.36v7.12h-1.8v-7.12H56.6v-1.42H63.12z"/>
	</g>
	<path class="st4" d="M94.33,42.63h-45.8v40.65h32.45C88.07,73.23,93.68,59.44,94.33,42.63z"/>
	<path class="st4" d="M2.15,39.38c0,1.1,0.03,2.18,0.07,3.25h46.31V23.06H2.15C2.15,29.16,2.15,35.44,2.15,39.38z"/>
	<path class="st5" d="M15.57,83.28h32.96V42.63H2.22C2.86,59.44,8.47,73.23,15.57,83.28z"/>
	<path class="st5" d="M48.53,23.06v19.57h45.8c0.04-1.07,0.07-2.15,0.07-3.25c0-3.95,0-10.22,0-16.32H48.53z"/>
	<g>
		<polygon class="st1" points="51.37,83.96 51.37,23.07 45.18,23.07 45.18,83.96 48.27,86.4 		"/>
	</g>
	<g>
		<rect x="27.25" y="39.69" class="st6" width="42.52" height="6.49"/>
		<path class="st6" d="M48.52,40.51"/>
	</g>
	<g>
		<polygon class="st6" points="51.52,78.64 51.52,23.06 45.03,23.06 45.03,78.64 48.27,81.07 		"/>
	</g>
	<path class="st6" d="M12.13,77.93c2.25,3.85,4.75,7.32,7.36,10.42c10.06-3.22,20.02-4.21,28.79-4.11
		c8.77-0.1,18.73,0.89,28.79,4.11c2.6-3.1,5.1-6.57,7.36-10.42c-2.83-1.21-13.55-4.23-36.14,5.48
		C25.67,73.7,14.96,76.72,12.13,77.93z"/>
	<g class="st2">
		<g class="st7">
			<path class="st8" d="M7.07,10.29h1.38V8.27l1.03,0.1c0.14,0.02,0.21,0.06,0.21,0.12c0,0.1-0.07,0.19-0.21,0.25
				C9.45,9.3,9.43,9.82,9.43,10.29h2.37c0,3.04-0.08,4.95-0.23,5.74c-0.1,0.76-0.3,1.29-0.62,1.57c-0.33,0.31-0.9,0.46-1.69,0.46
				l-0.47-0.99c0.84,0,1.34-0.09,1.5-0.26c0.15-0.15,0.27-0.48,0.36-1.01c0.12-0.57,0.19-2.11,0.2-4.61H9.42
				c-0.03,0.99-0.1,1.89-0.21,2.69c-0.11,0.78-0.3,1.54-0.58,2.28c-0.23,0.62-0.58,1.27-1.04,1.95L6.5,17.67
				c0.48-0.57,0.86-1.18,1.12-1.83c0.29-0.65,0.49-1.38,0.6-2.19c0.11-0.66,0.18-1.48,0.2-2.46H7.07V10.29z M12.35,9.69h3.83v8.34
				h-0.95v-0.9h-1.94v0.9h-0.95V9.69z M13.29,16.18h1.94v-5.63h-1.94V16.18z"/>
			<path class="st8" d="M22.47,8.02l0.77,0.3c0.12,0.05,0.18,0.11,0.18,0.18c0,0.06-0.09,0.11-0.26,0.17c0.6,0.34,1.2,0.61,1.8,0.79
				c0.59,0.19,1.4,0.38,2.45,0.58l-0.9,0.77c-0.84-0.19-1.55-0.4-2.11-0.64v0.52H20.1v-0.39c-0.56,0.23-1.27,0.49-2.11,0.77
				l-0.77-0.69c1.09-0.28,2.06-0.61,2.89-0.99C20.88,9.02,21.67,8.57,22.47,8.02z M25.76,13.86c-0.14,0-0.37,0.02-0.69,0.04
				c-0.62,0.06-1.32,0.1-2.09,0.13v0.59h3.3v0.77h-3.3V16h4.16v0.81h-4.16v0.47c0,0.37-0.12,0.64-0.36,0.81
				c-0.21,0.18-0.71,0.26-1.53,0.26l-0.4-0.95h0.86c0.3,0,0.46-0.1,0.48-0.3v-0.31h-4.55V16h4.55v-0.6h-3.65v-0.77h3.65v-0.56
				c-0.94,0.03-1.96,0.04-3.07,0.04l-0.58-0.73h1.07c2.22,0,4.26-0.1,6.1-0.3l0.63,0.65c0.04,0.02,0.05,0.08,0.05,0.16
				c0,0.03-0.01,0.04-0.04,0.04c-0.07,0-0.13-0.02-0.2-0.06C25.89,13.87,25.81,13.86,25.76,13.86z M19.41,10.97h5.81v1.98h-5.81
				V10.97z M24.31,12.22v-0.51h-4v0.51H24.31z M20.78,9.98h3.21c-0.53-0.23-1.06-0.53-1.58-0.88c-0.51,0.3-1.02,0.58-1.52,0.82
				C20.85,9.95,20.82,9.97,20.78,9.98z"/>
			<path class="st8" d="M28.27,11.11h4.25c0.01-0.09,0.01-0.18,0.01-0.26v-1.8c0-0.22-0.03-0.49-0.09-0.81l1.1,0.09
				c0.18,0.01,0.27,0.05,0.27,0.13c0,0.12-0.08,0.23-0.25,0.34v2.06c0,0.09,0,0.18-0.01,0.26h4.14v0.95h-4.13
				c0.4,1.26,0.95,2.26,1.63,3c0.63,0.78,1.59,1.46,2.88,2.02l-0.9,1.03c-1.11-0.58-2.04-1.38-2.79-2.4
				c-0.44-0.59-0.83-1.31-1.17-2.16c-0.08,0.27-0.18,0.53-0.29,0.78c-0.34,0.77-0.95,1.53-1.85,2.27c-0.64,0.55-1.41,1.05-2.29,1.51
				l-0.9-0.82c0.92-0.43,1.63-0.84,2.16-1.23c0.82-0.6,1.4-1.21,1.73-1.81c0.34-0.64,0.57-1.37,0.68-2.19h-4.18V11.11z"/>
			<path class="st8" d="M38.78,8.96h2.71V8.27l0.9,0.08c0.17,0.01,0.25,0.06,0.25,0.14c0,0.05-0.05,0.14-0.17,0.25v0.22h2.31V8.27
				l0.91,0.08c0.17,0.01,0.25,0.06,0.25,0.14c0,0.05-0.06,0.14-0.18,0.25v0.22h2.58v0.86h-2.58v0.64h-0.99V9.82h-2.31v0.64h-0.99
				V9.82h-2.71V8.96z M39.68,10.72h7.82v0.81h-1.25v0.95h1.8v0.86h-1.8v1.08h1.55v0.81h-3.61V16h3.34v0.86h-3.34v1.29H43.2v-1.29
				h-3.48V16h3.48v-0.77h-3.74v-0.81h1.64v-1.08h-1.89v-0.86h1.89v-0.95h-1.42V10.72z M43.2,12.48v-0.95h-1.17v0.95H43.2z
				 M43.2,14.42v-1.08h-1.17v1.08H43.2z M45.3,12.48v-0.95h-1.11v0.95H45.3z M45.3,14.42v-1.08h-1.11v1.08H45.3z"/>
			<path class="st8" d="M52.95,8.31l1.1,0.08c0.18,0.01,0.27,0.05,0.27,0.13c0,0.12-0.08,0.24-0.25,0.35v0.59
				c0,0.83-0.06,1.59-0.18,2.3c0.38,1,0.85,1.87,1.41,2.61c0.73,0.97,1.79,1.92,3.19,2.87l-1.24,0.78c-1.34-1.23-2.3-2.31-2.88-3.22
				c-0.29-0.46-0.56-0.98-0.83-1.56c-0.03,0.11-0.07,0.22-0.11,0.32c-0.33,0.91-0.94,1.8-1.83,2.66c-0.64,0.64-1.39,1.22-2.27,1.76
				l-0.9-0.81c0.91-0.52,1.62-1.01,2.13-1.47c0.81-0.73,1.38-1.45,1.71-2.17c0.51-1.12,0.76-2.47,0.76-4.06V9.13
				C53.03,8.9,53,8.63,52.95,8.31z"/>
			<path class="st8" d="M59.53,12.35l0.81,0.07c0.12,0.01,0.18,0.04,0.18,0.11c0,0.05-0.04,0.11-0.13,0.16
				c-0.04,1.27-0.1,2.21-0.18,2.82c-0.06,0.45-0.14,0.9-0.25,1.35l-0.9-0.17c0.14-0.51,0.23-0.95,0.28-1.3
				C59.44,14.76,59.51,13.74,59.53,12.35z M59.19,10.72h4.17v0.9h-1.51v6.52h-0.95v-6.52h-1.72V10.72z M59.53,8.92h3.52v0.9h-3.52
				V8.92z M62.49,12.35h0.78c-0.02,0.39-0.03,0.72-0.03,1c0,0.92,0.1,1.93,0.29,3.04l-0.81,0.09c-0.19-1.08-0.29-2.12-0.29-3.12
				C62.43,13.03,62.45,12.69,62.49,12.35z M63.79,9.98h2.01V8.27l0.88,0.08c0.16,0.01,0.24,0.06,0.24,0.14
				c0,0.04-0.06,0.11-0.18,0.21v1.29h2.11v5.29h-0.95v-0.65h-1.17v3.52H65.8v-3.52h-1.07v0.69h-0.95V9.98z M64.74,11.83h1.07v-0.99
				h-1.07V11.83z M64.74,13.77h1.07v-1.08h-1.07V13.77z M66.75,10.84v0.99h1.17v-0.99H66.75z M66.75,12.69v1.08h1.17v-1.08H66.75z"
				/>
			<path class="st8" d="M72.97,8.98c-0.04,0-0.12,0.01-0.22,0.04c-0.35,0.11-0.75,0.21-1.21,0.31v0.48H73v0.73h-1.46v0.56H73v0.73
				h-1.46v0.56h6.4v-0.56h-1.42v-0.73h1.42v-0.56h-1.42V9.82h1.42V9.26h-1.46V8.44h2.41v3.95h0.73v2.15h-0.95v-1.33h-7.81v1.33
				h-0.95v-2.15h0.68V8.4l0.46,0.23c0.26-0.04,0.5-0.1,0.73-0.15c0.3-0.08,0.58-0.19,0.84-0.34l0.59,0.62
				c0.06,0.06,0.09,0.13,0.09,0.21c0,0.05-0.03,0.08-0.09,0.08L72.97,8.98z M76.61,13.59c0.08,0,0.16,0.03,0.23,0.09l0.5,0.31
				c0.06,0.04,0.09,0.08,0.09,0.12c0,0.09-0.07,0.18-0.21,0.26l-1.66,1.2h3.94v0.86h-4.21v0.56c0,0.42-0.14,0.74-0.41,0.93
				c-0.23,0.21-0.8,0.31-1.71,0.31l-0.38-0.95h0.99c0.35,0,0.54-0.16,0.56-0.47v-0.38h-4.34v-0.86h4.34v-0.52l0.61,0.08l0.74-0.67
				h-3.53v-0.78h4.25L76.61,13.59z M75.48,8.27l0.59,0.29c0.07,0.03,0.1,0.06,0.1,0.1c0,0.07-0.06,0.13-0.18,0.18
				c-0.21,0.18-0.4,0.33-0.59,0.47c0.25,0.16,0.49,0.33,0.73,0.52l-0.52,0.47c-0.26-0.21-0.53-0.41-0.79-0.59
				c-0.28,0.17-0.62,0.35-1.01,0.55l-0.47-0.47c0.33-0.16,0.62-0.32,0.88-0.48c-0.28-0.17-0.56-0.32-0.84-0.46l0.47-0.43
				c0.32,0.15,0.62,0.32,0.92,0.51C75.02,8.72,75.26,8.51,75.48,8.27z M75.53,10.37l0.59,0.29c0.07,0.03,0.1,0.07,0.1,0.11
				c0,0.07-0.06,0.13-0.18,0.17c-0.2,0.17-0.39,0.32-0.57,0.46c0.21,0.15,0.42,0.32,0.62,0.48l-0.52,0.47
				c-0.23-0.2-0.46-0.38-0.68-0.56c-0.29,0.18-0.63,0.36-1.03,0.56l-0.47-0.47c0.35-0.17,0.66-0.34,0.93-0.52
				c-0.3-0.21-0.6-0.39-0.89-0.56l0.47-0.43c0.33,0.18,0.66,0.39,0.98,0.6C75.1,10.8,75.32,10.6,75.53,10.37z"/>
			<path class="st8" d="M81.22,8.65h1.98c0.05-0.09,0.1-0.13,0.13-0.13l0.81,0.65l-1.12,2.66c0.63,0.73,0.95,1.41,0.95,2.02
				c0,0.66-0.16,1.18-0.47,1.57c-0.31,0.38-0.71,0.57-1.2,0.57l-0.38-0.95c0.47-0.09,0.77-0.24,0.91-0.46
				c0.13-0.18,0.2-0.46,0.2-0.83c0-0.47-0.32-1.08-0.95-1.85l0.89-2.41h-1.28v8.77h-0.95V8.65H81.22z M84.19,13.29h6.14v0.86h-1.85
				v2.66c0,0.26,0.12,0.4,0.35,0.4h0.34c0.15,0,0.27-0.05,0.35-0.15c0.07-0.07,0.14-0.35,0.21-0.84l0.95,0.25
				c-0.09,0.65-0.24,1.08-0.44,1.28c-0.21,0.21-0.48,0.32-0.81,0.32h-0.81c-0.72,0-1.08-0.26-1.08-0.78v-3.13h-0.83
				c-0.04,1.08-0.23,1.89-0.57,2.42c-0.32,0.55-1.03,1.05-2.12,1.5l-0.64-0.74c0.92-0.33,1.54-0.7,1.84-1.11
				c0.33-0.38,0.52-1.07,0.56-2.07h-1.58V13.29z M86.67,8.27l0.98,0.08c0.18,0.01,0.27,0.06,0.27,0.14c0,0.05-0.07,0.14-0.22,0.25
				v0.68h2.54v2.45H89.3v-1.58h-4.17v1.58h-0.95V9.42h2.49V8.27z M85.61,11.45h3.22v0.86h-3.22V11.45z"/>
		</g>
	</g>
	<g>
		<path class="st8" d="M93.11,3.44V40c0,26.1-12.29,43.5-22.6,53.5c-9.91,9.61-19.94,14.44-22.24,15.47
			c-2.29-1.03-12.27-5.82-22.17-15.4C15.76,83.56,3.44,66.14,3.44,40V3.44H93.11 M48.27,110.37l0,1.29L48.27,110.37L48.27,110.37
			 M94.4,2.15H2.15c0,0,0,26.93,0,37.85c0,51.49,46.12,70.38,46.12,70.38h0h0h0c0,0,46.12-18.89,46.12-70.38
			C94.4,29.07,94.4,2.15,94.4,2.15L94.4,2.15z"/>
	</g>
	<line class="st9" x1="94.13" y1="23.15" x2="2.65" y2="23.15"/>
</g>
</svg>
